<?xml version="1.0" encoding="UTF-8"?>
<svg width="28px" height="28px" viewBox="0 0 28 28" version="1.1" xmlns="http://www.w3.org/2000/svg" xmlns:xlink="http://www.w3.org/1999/xlink">
    <!-- Generator: Sketch 56.2 (81672) - https://sketch.com -->
    <title>At</title>
    <desc>Created with Sketch.</desc>
    <g id="At" stroke="none" stroke-width="1" fill="none" fill-rule="evenodd">
        <g>
            <rect id="矩形" opacity="0.200000003" x="0" y="0" width="28" height="28"></rect>
            <path d="M27,14 C27,6.82029825 21.1797017,1 14,1 C6.82029825,1 1,6.82029825 1,14 C1,21.1797017 6.82029825,27 14,27 L14,27 C17.1367609,27 20.014045,25.8890481 22.259849,24.0391478" id="路径" stroke="#6E6E6E" stroke-width="2" stroke-linecap="round"></path>
            <path d="M19,9 L19,16 C19,18.209139 20.790861,20 23,20 C25.209139,20 27,18.209139 27,16 L27,14" id="路径" stroke="#6E6E6E" stroke-width="2" stroke-linecap="round"></path>
            <path d="M19.0198617,10.7122723 C17.9497435,9.07873332 16.1051443,8 14.0090476,8 C10,8 8.01986174,10.6862915 8.01986174,14 C8.01986174,17.3137085 10,20 14.0090476,20 L14.0090476,20 C16.1035253,20 17.9468938,18.9229324 19.0173807,17.2915119" id="路径" stroke="#6E6E6E" stroke-width="2"></path>
        </g>
    </g>
</svg>