<?xml version="1.0" encoding="UTF-8"?>
<svg width="28px" height="28px" viewBox="0 0 28 28" version="1.1" xmlns="http://www.w3.org/2000/svg" xmlns:xlink="http://www.w3.org/1999/xlink">
    <!-- Generator: Sketch 56.2 (81672) - https://sketch.com -->
    <title>Briefcase</title>
    <desc>Created with Sketch.</desc>
    <g id="Briefcase" stroke="none" stroke-width="1" fill="none" fill-rule="evenodd">
        <g>
            <rect id="蒙版" opacity="0.200000003" x="0" y="0" width="28" height="28"></rect>
            <path d="M3,5 L25,5 C26.1045695,5 27,5.8954305 27,7 L27,25 C27,26.1045695 26.1045695,27 25,27 L3,27 C1.8954305,27 1,26.1045695 1,25 L1,7 C1,5.8954305 1.8954305,5 3,5 Z" id="矩形" stroke="#6E6E6E" stroke-width="2"></path>
            <path d="M10,14 C10,16.209139 11.790861,18 14,18 C16.209139,18 18,16.209139 18,14" id="路径" stroke="#6E6E6E" stroke-width="1.85714286"></path>
            <path d="M0,13 L28,13" id="路径-51" stroke="#6E6E6E" stroke-width="2"></path>
            <path d="M10,1 L18,1 C19.1045695,1 20,1.8954305 20,3 L20,5 L8,5 L8,3 C8,1.8954305 8.8954305,1 10,1 Z" id="矩形" stroke="#6E6E6E" stroke-width="1.85714286"></path>
        </g>
    </g>
</svg>