<?xml version="1.0" encoding="UTF-8"?>
<svg width="28px" height="28px" viewBox="0 0 28 28" version="1.1" xmlns="http://www.w3.org/2000/svg" xmlns:xlink="http://www.w3.org/1999/xlink">
    <!-- Generator: Sketch 56.2 (81672) - https://sketch.com -->
    <title>Calendar</title>
    <desc>Created with Sketch.</desc>
    <g id="Calendar" stroke="none" stroke-width="1" fill="none" fill-rule="evenodd">
        <g>
            <rect id="蒙版" opacity="0.200000003" x="0" y="0" width="28" height="28"></rect>
            <path d="M1,5 L1,25 C1,26.1045695 1.8954305,27 3,27 L25,27 C26.1045695,27 27,26.1045695 27,25 L27,5 C27,3.8954305 26.1045695,3 25,3 L3,3 C1.8954305,3 1,3.8954305 1,5 Z" id="路径-2" stroke="#6E6E6E" stroke-width="2"></path>
            <path d="M7,1 L7,5" id="路径" stroke="#6E6E6E" stroke-width="2" stroke-linecap="round"></path>
            <path d="M21,1 L21,5" id="路径-2" stroke="#6E6E6E" stroke-width="2" stroke-linecap="round"></path>
            <path d="M1,9 L27,9 L1,9 Z" id="形状结合-path" stroke="#6E6E6E" stroke-width="2"></path>
            <path d="M7,21 L9,21" id="路径-3" stroke="#6E6E6E" stroke-width="2" stroke-linecap="round" stroke-linejoin="round"></path>
            <path d="M7,15 L9,15" id="路径-4" stroke="#6E6E6E" stroke-width="2" stroke-linecap="round" stroke-linejoin="round"></path>
            <path d="M13,21 L15,21" id="路径-3" stroke="#6E6E6E" stroke-width="2" stroke-linecap="round" stroke-linejoin="round"></path>
            <path d="M13,15 L15,15" id="路径-4" stroke="#6E6E6E" stroke-width="2" stroke-linecap="round" stroke-linejoin="round"></path>
            <path d="M19,21 L21,21" id="路径-3" stroke="#6E6E6E" stroke-width="2" stroke-linecap="round" stroke-linejoin="round"></path>
            <path d="M19,15 L21,15" id="路径-4" stroke="#6E6E6E" stroke-width="2" stroke-linecap="round" stroke-linejoin="round"></path>
        </g>
    </g>
</svg>