<?xml version="1.0" encoding="UTF-8"?>
<svg width="14px" height="14px" viewBox="0 0 14 14" version="1.1" xmlns="http://www.w3.org/2000/svg" xmlns:xlink="http://www.w3.org/1999/xlink">
    <!-- Generator: Sketch 54.1 (76490) - https://sketchapp.com -->
    <title>ic_arrow-up</title>
    <desc>Created with Sketch.</desc>
    <g id="ic_arrow-up" stroke="none" stroke-width="1" fill="none" fill-rule="evenodd">
        <g id="编组">
            <g transform="translate(7.000000, 7.000000) rotate(90.000000) translate(-7.000000, -7.000000) ">
                <rect id="矩形" opacity="0.200000003" x="0" y="0" width="14" height="14"></rect>
                <path d="M3.82539569,1.70748202 L9.55710032,6.6203717 C9.76676324,6.80008277 9.79104401,7.11573277 9.61133293,7.32539569 C9.59467058,7.34483509 9.57653972,7.36296595 9.55710032,7.3796283 L3.82539569,12.292518 C3.61573277,12.4722291 3.30008277,12.4479483 3.1203717,12.2382854 C3.04269608,12.1476638 3,12.0322453 3,11.9128897 L3,2.08711032 C3,1.81096794 3.22385763,1.58711032 3.5,1.58711032 C3.61935564,1.58711032 3.73477413,1.6298064 3.82539569,1.70748202 Z" id="路径-17" fill="#6E6E6E" fill-rule="nonzero" transform="translate(6.500000, 7.000000) scale(-1, 1) translate(-6.500000, -7.000000) "></path>
            </g>
        </g>
    </g>
</svg>