<?xml version="1.0" encoding="UTF-8"?>
<svg width="28px" height="28px" viewBox="0 0 28 28" version="1.1" xmlns="http://www.w3.org/2000/svg" xmlns:xlink="http://www.w3.org/1999/xlink">
    <!-- Generator: Sketch 56.2 (81672) - https://sketch.com -->
    <title>Codepen</title>
    <desc>Created with Sketch.</desc>
    <g id="Codepen" stroke="none" stroke-width="1" fill="none" fill-rule="evenodd">
        <g>
            <rect id="矩形" opacity="0.200000003" x="0" y="0" width="28" height="28"></rect>
            <path d="M1.44689858,18.8329047 L13.4456865,26.823891 C13.7814088,27.0474763 14.2185893,27.0474736 14.5543089,26.8238842 L26.5527786,18.8328979 C27.0124486,18.5267575 27.1369089,17.9059455 26.8307684,17.4462756 C26.7572897,17.3359473 26.6626091,17.2413287 26.5522326,17.1679224 L14.5537629,9.18828972 C14.2182942,8.9651848 13.781704,8.96518213 13.4462325,9.18828294 L1.44744451,17.1679156 C0.987570127,17.4737489 0.862695136,18.0944776 1.16852841,18.554352 C1.24193796,18.6647362 1.33656251,18.7594228 1.44689858,18.8329047 Z" id="路径-7" stroke="#6E6E6E" stroke-width="2"></path>
            <path d="M1.44689858,10.8329047 L13.4456865,18.823891 C13.7814088,19.0474763 14.2185893,19.0474736 14.5543089,18.8238842 L26.5527786,10.8328979 C27.0124486,10.5267575 27.1369089,9.90594554 26.8307684,9.44627556 C26.7572897,9.33594725 26.6626091,9.2413287 26.5522326,9.16792236 L14.5537629,1.18828972 C14.2182942,0.965184795 13.781704,0.965182125 13.4462325,1.18828294 L1.44744451,9.16791559 C0.987570127,9.47374887 0.862695136,10.0944776 1.16852841,10.554352 C1.24193796,10.6647362 1.33656251,10.7594228 1.44689858,10.8329047 Z" id="路径-7" stroke="#6E6E6E" stroke-width="2"></path>
            <path d="M14,9 L14,1" id="路径-8" stroke="#6E6E6E" stroke-width="2"></path>
            <path d="M14,26 L14,19" id="路径-8" stroke="#6E6E6E" stroke-width="2"></path>
            <path d="M27,18 L27,10" id="路径-8" stroke="#6E6E6E" stroke-width="2" stroke-linejoin="round"></path>
            <path d="M1,18 L1,10" id="路径-8" stroke="#6E6E6E" stroke-width="2" stroke-linejoin="round"></path>
        </g>
    </g>
</svg>