<?xml version="1.0" encoding="UTF-8"?>
<svg width="28px" height="28px" viewBox="0 0 28 28" version="1.1" xmlns="http://www.w3.org/2000/svg" xmlns:xlink="http://www.w3.org/1999/xlink">
    <!-- Generator: Sketch 56.2 (81672) - https://sketch.com -->
    <title>Contacts</title>
    <desc>Created with Sketch.</desc>
    <g id="Contacts" stroke="none" stroke-width="1" fill="none" fill-rule="evenodd">
        <g>
            <rect id="矩形" opacity="0.200000003" x="0" y="0" width="28" height="28"></rect>
            <path d="M20,21 C19.7486284,19.9864985 19.1214725,18.7037528 18.2423626,18.0138561 C17.1420205,17.1503436 15.6469574,17 14,17 C12.3551932,17 10.8618988,17.1489467 9.76196787,18.010447 C8.88059855,18.7007631 8.25179768,19.9847857 8,20.9999281" id="路径" stroke="#6E6E6E" stroke-width="2" stroke-linecap="round" stroke-linejoin="round"></path>
            <path d="M10,10 C10,12.209139 11.790861,14 14,14 C16.209139,14 18,12.209139 18,10 C18,7.790861 16.209139,6 14,6 C11.790861,6 10,7.790861 10,10 Z" id="路径" stroke="#6E6E6E" stroke-width="2"></path>
            <path d="M3,4 L3,3 C3,1.8954305 3.8954305,1 5,1 L23,1 C24.1045695,1 25,1.8954305 25,3 L25,25 C25,26.1045695 24.1045695,27 23,27 L5,27 C3.8954305,27 3,26.1045695 3,25 L3,24" id="路径" stroke="#6E6E6E" stroke-width="2" stroke-linecap="round"></path>
            <path d="M2,8 L4,8" id="路径-108" stroke="#6E6E6E" stroke-width="2" stroke-linecap="round"></path>
            <path d="M2,14 L4,14" id="路径-108" stroke="#6E6E6E" stroke-width="2" stroke-linecap="round"></path>
            <path d="M2,20 L4,20" id="路径-108" stroke="#6E6E6E" stroke-width="2" stroke-linecap="round"></path>
        </g>
    </g>
</svg>