<?xml version="1.0" encoding="UTF-8"?>
<svg width="28px" height="28px" viewBox="0 0 28 28" version="1.1" xmlns="http://www.w3.org/2000/svg" xmlns:xlink="http://www.w3.org/1999/xlink">
    <!-- Generator: Sketch 56.2 (81672) - https://sketch.com -->
    <title>Copy</title>
    <desc>Created with Sketch.</desc>
    <g id="Copy" stroke="none" stroke-width="1" fill="none" fill-rule="evenodd">
        <g>
            <rect id="矩形" x="0" y="0" width="28" height="28"></rect>
            <path d="M6,5 L6,3 C6,1.8954305 6.8954305,1 8,1 L24,1 C25.1045695,1 26,1.8954305 26,3 L26,21 C26,22.1045695 25.1045695,23 24,23 L21,23" id="路径" stroke="#6E6E6E" stroke-width="2"></path>
            <path d="M4,5 L20,5 C21.1045695,5 22,5.8954305 22,7 L22,25 C22,26.1045695 21.1045695,27 20,27 L4,27 C2.8954305,27 2,26.1045695 2,25 L2,7 C2,5.8954305 2.8954305,5 4,5 Z" id="矩形" stroke="#6E6E6E" stroke-width="2"></path>
        </g>
    </g>
</svg>