<?xml version="1.0" encoding="UTF-8"?>
<svg width="28px" height="28px" viewBox="0 0 28 28" version="1.1" xmlns="http://www.w3.org/2000/svg" xmlns:xlink="http://www.w3.org/1999/xlink">
    <!-- Generator: Sketch 56.2 (81672) - https://sketch.com -->
    <title>DataMap</title>
    <desc>Created with Sketch.</desc>
    <g id="DataMap" stroke="none" stroke-width="1" fill="none" fill-rule="evenodd">
        <g>
            <rect id="矩形" opacity="0.200000003" x="0" y="0" width="28" height="28"></rect>
            <path d="M1,23 L1,4 C1,2.34314575 2.34314575,1 4,1 C5.65685425,1 7,2.34314575 7,4 L7,24" id="路径" stroke="#6E6E6E" stroke-width="2" stroke-linecap="round" stroke-linejoin="round"></path>
            <path d="M7,24 C7,22.3431458 5.65685425,21 4,21 C2.34314575,21 1,22.3431458 1,24 C1,25.6568542 2.34314575,27 4,27" id="路径" stroke="#6E6E6E" stroke-width="2"></path>
            <path d="M20,11 L20,21" id="直线-14" stroke="#6E6E6E" stroke-width="2" stroke-linecap="round"></path>
            <path d="M14,15 L14,21" id="直线-14" stroke="#6E6E6E" stroke-width="2" stroke-linecap="round"></path>
            <path d="M7,5 L25,5 C26.1045695,5 27,5.8954305 27,7 L27,25 C27,26.1045695 26.1045695,27 25,27 L3,27 C1.8954305,27 1,26.1045695 1,25 L1,5" id="路径" stroke="#6E6E6E" stroke-width="2"></path>
        </g>
    </g>
</svg>