<?xml version="1.0" encoding="UTF-8"?>
<svg width="28px" height="28px" viewBox="0 0 28 28" version="1.1" xmlns="http://www.w3.org/2000/svg" xmlns:xlink="http://www.w3.org/1999/xlink">
    <!-- Generator: Sketch 56.2 (81672) - https://sketch.com -->
    <title>Database</title>
    <desc>Created with Sketch.</desc>
    <g id="Database" stroke="none" stroke-width="1" fill="none" fill-rule="evenodd">
        <g>
            <g id="icon">
                <rect id="矩形" opacity="0.200000003" x="0" y="0" width="28" height="28"></rect>
                <path d="M25,8 L25,6 C25,3.23857625 20.0751322,1 14,1 C7.92486775,1 3,3.23857625 3,6 L3,8" id="路径" stroke="#6E6E6E" stroke-width="2" stroke-linecap="round"></path>
                <path d="M3,8 L3,15 C3,17.7614237 7.92486775,20 14,20 C20.0751322,20 25,17.7614237 25,15 L25,8" id="路径" stroke="#6E6E6E" stroke-width="2" stroke-linecap="round"></path>
                <path d="M3,8 C3,10.7614237 7.92486775,13 14,13 L14,13 C20.0751322,13 25,10.7614237 25,8" id="路径" stroke="#6E6E6E" stroke-width="2"></path>
            </g>
            <path d="M3,14 L3,22 C3,24.7614237 7.92486775,27 14,27 C20.0751322,27 25,24.7614237 25,22 L25,14" id="路径" stroke="#6E6E6E" stroke-width="2" stroke-linecap="round"></path>
        </g>
    </g>
</svg>