<?xml version="1.0" encoding="UTF-8"?>
<svg width="28px" height="28px" viewBox="0 0 28 28" version="1.1" xmlns="http://www.w3.org/2000/svg" xmlns:xlink="http://www.w3.org/1999/xlink">
    <!-- Generator: Sketch 56.2 (81672) - https://sketch.com -->
    <title>DataBaseline</title>
    <desc>Created with Sketch.</desc>
    <g id="DataBaseline" stroke="none" stroke-width="1" fill="none" fill-rule="evenodd">
        <g>
            <path d="M5,3 L23,3 C24.1045695,3 25,3.8954305 25,5 L25,23 C25,24.1045695 24.1045695,25 23,25 L5,25 C3.8954305,25 3,24.1045695 3,23 L3,5 C3,3.8954305 3.8954305,3 5,3 Z" id="矩形" stroke="#6E6E6E" stroke-width="2"></path>
            <rect id="矩形" opacity="0.200000003" x="0" y="0" width="28" height="28"></rect>
            <polyline id="路径-5" stroke="#6E6E6E" stroke-width="2" stroke-linecap="round" stroke-linejoin="round" points="6.5 14 11.5909091 10 16.5 14 21.5 10"></polyline>
            <path d="M16,24 L16,21" id="路径-41" stroke="#6E6E6E" stroke-width="2" stroke-linecap="round" stroke-linejoin="round"></path>
            <path d="M20,24 L20,19" id="路径-41" stroke="#6E6E6E" stroke-width="2" stroke-linecap="round" stroke-linejoin="round"></path>
            <path d="M8,24 L8,21" id="路径-41" stroke="#6E6E6E" stroke-width="2" stroke-linecap="round" stroke-linejoin="round"></path>
            <path d="M12,24 L12,19" id="路径-41" stroke="#6E6E6E" stroke-width="2" stroke-linecap="round" stroke-linejoin="round"></path>
        </g>
    </g>
</svg>