<?xml version="1.0" encoding="UTF-8"?>
<svg width="28px" height="28px" viewBox="0 0 28 28" version="1.1" xmlns="http://www.w3.org/2000/svg" xmlns:xlink="http://www.w3.org/1999/xlink">
    <!-- Generator: Sketch 56.2 (81672) - https://sketch.com -->
    <title>DataTrend</title>
    <desc>Created with Sketch.</desc>
    <g id="DataTrend" stroke="none" stroke-width="1" fill="none" fill-rule="evenodd">
        <g>
            <rect id="矩形" opacity="0.200000003" x="0" y="0" width="28" height="28"></rect>
            <path d="M4,1 L24,1 C25.6568542,1 27,2.34314575 27,4 L27,18 C27,19.6568542 25.6568542,21 24,21 L4,21 C2.34314575,21 1,19.6568542 1,18 L1,4 C1,2.34314575 2.34314575,1 4,1 Z" id="矩形" stroke="#6E6E6E" stroke-width="2"></path>
            <polyline id="路径-5" stroke="#6E6E6E" stroke-width="2" stroke-linecap="round" stroke-linejoin="round" points="6 13 11 9 16 13 22 8"></polyline>
            <path d="M14,21 L14,27" id="直线-13" stroke="#6E6E6E" stroke-width="2" stroke-linecap="round"></path>
            <path d="M14,21 L8,27" id="直线-13" stroke="#6E6E6E" stroke-width="2" stroke-linecap="round"></path>
            <path d="M14,21 L20,27" id="直线-13" stroke="#6E6E6E" stroke-width="2" stroke-linecap="round"></path>
        </g>
    </g>
</svg>