<?xml version="1.0" encoding="UTF-8"?>
<svg width="28px" height="28px" viewBox="0 0 28 28" version="1.1" xmlns="http://www.w3.org/2000/svg" xmlns:xlink="http://www.w3.org/1999/xlink">
    <!-- Generator: Sketch 56.2 (81672) - https://sketch.com -->
    <title>FolderOpen</title>
    <desc>Created with Sketch.</desc>
    <g id="FolderOpen" stroke="none" stroke-width="1" fill="none" fill-rule="evenodd">
        <g>
            <rect id="蒙版" opacity="0.200000003" x="0" y="0" width="28" height="28"></rect>
            <path d="M8.01509627,9 L25.3599037,9 C26.4644732,9 27.3599037,9.8954305 27.3599037,11 C27.3599037,11.1830651 27.3347697,11.3652634 27.2852056,11.5414912 L23.9102056,23.5414912 C23.6676107,24.4040509 22.8809292,25 21.9849037,25 L2,25 L6.08979439,10.4585088 C6.33238932,9.59594907 7.11907078,9 8.01509627,9 Z" id="矩形" stroke="#6E6E6E" stroke-width="2" stroke-linejoin="round"></path>
            <path d="M21,25 L3,25 C1.8954305,25 1,24.1045695 1,23 L1,5 C1,3.8954305 1.8954305,3 3,3 L6,3 C6.1552451,3 7.07229018,3.03614509 7.21114562,3.10557281 L9.78885438,4.89442719 C9.92770982,4.96385491 10.8447549,5 11,5 C11.1034967,5 14.4368301,5 21,5 C22.1045695,5 23,5.8954305 23,7 L23,9" id="路径" stroke="#6E6E6E" stroke-width="2"></path>
        </g>
    </g>
</svg>