<?xml version="1.0" encoding="UTF-8"?>
<svg width="28px" height="28px" viewBox="0 0 28 28" version="1.1" xmlns="http://www.w3.org/2000/svg" xmlns:xlink="http://www.w3.org/1999/xlink">
    <!-- Generator: Sketch 56.2 (81672) - https://sketch.com -->
    <title>Folder</title>
    <desc>Created with Sketch.</desc>
    <g id="Folder" stroke="none" stroke-width="1" fill="none" fill-rule="evenodd">
        <g>
            <rect id="蒙版" opacity="0.200000003" x="0" y="0" width="28" height="28"></rect>
            <path d="M7,9 L25,9 C26.1045695,9 27,9.8954305 27,11 L27,23 C27,24.1045695 26.1045695,25 25,25 L5,25 L5,11 C5,9.8954305 5.8954305,9 7,9 Z" id="矩形" stroke="#6E6E6E" stroke-width="2"></path>
            <path d="M23,25 L3,25 C1.8954305,25 1,24.1045695 1,23 L1,5 C1,3.8954305 1.8954305,3 3,3 L7,3 C7.1552451,3 8.07229018,3.03614509 8.21114562,3.10557281 L11.7888544,4.89442719 C11.9277098,4.96385491 12.8447549,5 13,5 C13.1034967,5 16.4368301,5 23,5 C24.1045695,5 25,5.8954305 25,7 L25,9" id="路径" stroke="#6E6E6E" stroke-width="2"></path>
            <path d="M5,21 L5,23 C5,24.1045695 4.1045695,25 3,25 C1.8954305,25 1,24.1045695 1,23 L1,21" id="路径" stroke="#6E6E6E" stroke-width="2"></path>
        </g>
    </g>
</svg>