<?xml version="1.0" encoding="UTF-8"?>
<svg width="28px" height="28px" viewBox="0 0 28 28" version="1.1" xmlns="http://www.w3.org/2000/svg" xmlns:xlink="http://www.w3.org/1999/xlink">
    <!-- Generator: Sketch 56.2 (81672) - https://sketch.com -->
    <title>Forward</title>
    <desc>Created with Sketch.</desc>
    <g id="Forward" stroke="none" stroke-width="1" fill="none" fill-rule="evenodd">
        <g>
            <rect id="矩形" opacity="0.200000003" x="0" y="0" width="28" height="28"></rect>
            <path d="M25,17 L25,23 C25,24.1045695 24.1045695,25 23,25 L5,25 C3.8954305,25 3,24.1045695 3,23 L3,5 C3,3.8954305 3.8954305,3 5,3 L11,3" id="路径" stroke="#6E6E6E" stroke-width="2" stroke-linecap="round"></path>
            <path d="M17,3 C17.8888889,3 21.2222222,3 23,3 C24.1045695,3 25,3.8954305 25,5 C25,6.77777778 25,10.1111111 25,11" id="路径" stroke="#6E6E6E" stroke-width="2" stroke-linecap="round"></path>
            <path d="M24,4 L11,17" id="直线" stroke="#6E6E6E" stroke-width="2" stroke-linecap="round"></path>
            <path d="M17,3 L24,3 C24.5522847,3 25,3.44771525 25,4 L25,11" id="路径-56" stroke="#6E6E6E" stroke-width="2" stroke-linecap="round"></path>
        </g>
    </g>
</svg>