<?xml version="1.0" encoding="UTF-8"?>
<svg width="28px" height="28px" viewBox="0 0 28 28" version="1.1" xmlns="http://www.w3.org/2000/svg" xmlns:xlink="http://www.w3.org/1999/xlink">
    <!-- Generator: Sketch 56.2 (81672) - https://sketch.com -->
    <title>Fridge</title>
    <desc>Created with Sketch.</desc>
    <g id="Fridge" stroke="none" stroke-width="1" fill="none" fill-rule="evenodd">
        <g>
            <rect id="矩形" x="0" y="0" width="28" height="28"></rect>
            <path d="M6,11 L22,11 C23.1045695,11 24,11.8954305 24,13 L24,23 C24,24.1045695 23.1045695,25 22,25 L6,25 C4.8954305,25 4,24.1045695 4,23 L4,13 C4,11.8954305 4.8954305,11 6,11 Z" id="矩形" stroke="#6E6E6E" stroke-width="2"></path>
            <path d="M6,1 L22,1 C23.1045695,1 24,1.8954305 24,3 L24,9 C24,10.1045695 23.1045695,11 22,11 L6,11 C4.8954305,11 4,10.1045695 4,9 L4,3 C4,1.8954305 4.8954305,1 6,1 Z" id="矩形" stroke="#6E6E6E" stroke-width="2"></path>
            <path d="M20,5 L20,7" id="路径-160" stroke="#6E6E6E" stroke-width="2" stroke-linecap="round"></path>
            <path d="M20,15 L20,17" id="路径-160" stroke="#6E6E6E" stroke-width="2" stroke-linecap="round"></path>
            <path d="M7,25 L7,27" id="路径-160" stroke="#6E6E6E" stroke-width="2" stroke-linecap="round"></path>
            <path d="M21,25 L21,27" id="路径-160" stroke="#6E6E6E" stroke-width="2" stroke-linecap="round"></path>
        </g>
    </g>
</svg>