<?xml version="1.0" encoding="UTF-8"?>
<svg width="28px" height="28px" viewBox="0 0 28 28" version="1.1" xmlns="http://www.w3.org/2000/svg" xmlns:xlink="http://www.w3.org/1999/xlink">
    <!-- Generator: Sketch 56.2 (81672) - https://sketch.com -->
    <title>Hearts</title>
    <desc>Created with Sketch.</desc>
    <g id="Hearts" stroke="none" stroke-width="1" fill="none" fill-rule="evenodd">
        <g>
            <rect id="蒙版" opacity="0.200000003" x="0" y="0" width="28" height="28"></rect>
            <path d="M6.71006945,20.5684342 C4.61544033,18.6029382 2.97720241,16.5391938 2.0889075,15.0553454 C1.0151185,13.2616391 1,11.5499918 1,10.4367993 C1,6.32956845 4.25456417,3 8.2931464,3 C10.6013828,3 12.6598301,4.08765376 14,5.78650972 C15.3401699,4.08765376 17.3986172,3 19.7068537,3 C23.7454359,3 27,6.32956845 27,10.4367993 C27,11.5499918 26.9848816,13.2616391 25.9110925,15.0553454 C25.0227977,16.5391938 23.3845596,18.6029382 21.2899305,20.5684342 C19.853794,21.9160334 18.2413865,23.2240001 16.4527084,24.4923339 C15.916413,24.8726156 14.880259,25.5587204 14.3419822,25.9127461 C14.3167925,25.9293133 14.1582433,26.001296 13.9983107,26 C13.8373847,25.9986603 13.6750581,25.923931 13.6457819,25.9046696 C13.1021438,25.5469963 12.0714407,24.8641974 11.5365812,24.4847373 C9.75217633,23.2187776 8.14333906,21.9133431 6.71006945,20.5684342 Z" id="路径" stroke="#6E6E6E" stroke-width="2" stroke-linejoin="round"></path>
        </g>
    </g>
</svg>