<?xml version="1.0" encoding="UTF-8"?>
<svg width="14px" height="14px" viewBox="0 0 14 14" version="1.1" xmlns="http://www.w3.org/2000/svg" xmlns:xlink="http://www.w3.org/1999/xlink">
    <!-- Generator: Sketch 54.1 (76490) - https://sketchapp.com -->
    <title>ic_rate_hearts</title>
    <desc>Created with Sketch.</desc>
    <g id="ic_rate_hearts" stroke="none" stroke-width="1" fill="none" fill-rule="evenodd">
        <g>
            <rect id="矩形" opacity="0.200000003" x="0" y="0" width="14" height="14"></rect>
            <path d="M3.07465278,10.1768121 C1.94677556,9.13615736 1.06464745,8.04348386 0.586334809,7.25784302 C0.00814073344,6.30814434 3.80140364e-13,5.40189277 3.80140364e-13,4.8125 C3.80140364e-13,2.6378788 1.75245763,0.875 3.92707883,0.875 C5.16997537,0.875 6.27837003,1.45087095 7,2.35035003 C7.72162997,1.45087095 8.83002463,0.875 10.0729212,0.875 C12.2475424,0.875 14,2.6378788 14,4.8125 C14,5.40189277 13.9918593,6.30814434 13.4136652,7.25784302 C12.9353526,8.04348386 12.0532244,9.13615736 10.9253472,10.1768121 C10.1520429,10.8903142 9.2838235,11.5828324 8.32068913,12.2543665 C8.03191469,12.4557111 7.4739856,12.8189773 7.18414426,13.0064203 C7.1705806,13.015192 7.08520792,13.0533041 6.99909038,13.0526085 C6.91243791,13.0519086 6.82503129,13.0123423 6.8092672,13.0021441 C6.51653898,12.8127698 5.96154498,12.451254 5.67354373,12.2503444 C4.71271033,11.5800673 3.84641334,10.8888898 3.07465278,10.1768121 Z" id="路径" fill="#FF6860" fill-rule="nonzero"></path>
        </g>
    </g>
</svg>