<?xml version="1.0" encoding="UTF-8"?>
<svg width="28px" height="28px" viewBox="0 0 28 28" version="1.1" xmlns="http://www.w3.org/2000/svg" xmlns:xlink="http://www.w3.org/1999/xlink">
    <!-- Generator: Sketch 56.2 (81672) - https://sketch.com -->
    <title>Hot</title>
    <desc>Created with Sketch.</desc>
    <g id="Hot" stroke="none" stroke-width="1" fill="none" fill-rule="evenodd">
        <g>
            <rect id="矩形" opacity="0.200000003" x="0" y="0" width="28" height="28"></rect>
            <path d="M3,16 C3,22.0751302 7.92486775,27 14,27 C20.0751322,27 25,22.0751322 25,16 C25,11.9499118 23.6666667,8.6165785 21,6 C20.8860616,6.93033719 20.5541518,7.66735465 20.0042706,8.21105236 C19.4543894,8.75475008 18.7862992,9.01773263 18,9 C18.2234966,7.40120408 17.7904625,5.75206277 16.7008978,4.0525761 C15.611333,2.35308942 14.0443671,1.33556405 12,1 C12.6966089,2.53807061 11.6696736,4.37487984 8.91919404,6.51042768 C4.59387811,9.86872172 3,12.6346209 3,16 Z" id="路径" stroke="#6E6E6E" stroke-width="2" stroke-linejoin="round"></path>
            <path d="M10,19.2449291 C10,21.3187975 11.790861,23 14,23 C16.209139,23 18,21.7483097 18,19.2449291 C18,17.4765596 16.6035453,16.5717759 15.9148862,15.5395349 C15.4258846,14.8065635 15.1209226,13.9600518 15,13 C11.6666667,14.2419499 10,16.3235929 10,19.2449291 Z" id="路径" stroke="#6E6E6E" stroke-width="2" stroke-linejoin="round" transform="translate(14.000000, 18.000000) scale(-1, 1) translate(-14.000000, -18.000000) "></path>
        </g>
    </g>
</svg>