<?xml version="1.0" encoding="UTF-8"?>
<svg width="28px" height="28px" viewBox="0 0 28 28" version="1.1" xmlns="http://www.w3.org/2000/svg" xmlns:xlink="http://www.w3.org/1999/xlink">
    <!-- Generator: Sketch 56.2 (81672) - https://sketch.com -->
    <title>Hourglass</title>
    <desc>Created with Sketch.</desc>
    <g id="Hourglass" stroke="none" stroke-width="1" fill="none" fill-rule="evenodd">
        <g>
            <rect id="矩形" opacity="0.200000003" x="0" y="0" width="28" height="28"></rect>
            <path d="M3,1 L25,1" id="路径-99" stroke="#6E6E6E" stroke-width="2" stroke-linecap="round"></path>
            <path d="M3,27 L25,27" id="路径-99" stroke="#6E6E6E" stroke-width="2" stroke-linecap="round"></path>
            <path d="M6,6 C6,10.418278 12,14 14,14 C16,14 22,10.418278 22,6 L22,1 L6,1 C6,1.38781467 6,3.05448133 6,6 Z" id="路径" stroke="#6E6E6E" stroke-width="2"></path>
            <path d="M6,19 C6,23.418278 12,27 14,27 C16,27 22,23.418278 22,19 L22,14 L6,14 L6,19 Z" id="路径" stroke="#6E6E6E" stroke-width="2" transform="translate(14.000000, 20.500000) scale(1, -1) translate(-14.000000, -20.500000) "></path>
        </g>
    </g>
</svg>