<?xml version="1.0" encoding="UTF-8"?>
<svg width="14px" height="14px" viewBox="0 0 14 14" version="1.1" xmlns="http://www.w3.org/2000/svg" xmlns:xlink="http://www.w3.org/1999/xlink">
    <!-- Generator: Sketch 54.1 (76490) - https://sketchapp.com -->
    <title>ic_menu_nav3</title>
    <desc>Created with Sketch.</desc>
    <g id="ic_menu_nav3" stroke="none" stroke-width="1" fill="none" fill-rule="evenodd">
        <g>
            <rect id="矩形" x="0" y="0" width="14" height="14"></rect>
            <path d="M11,0 L14,0 L14,3 L11,3 L11,0 Z M1,8 L1,3.5 C1,1.56700338 2.56700338,2.48689958e-14 4.5,0 C6.43299662,2.48689958e-14 8,1.56700338 8,3.5 L8,6 L6.5,6 C6.5,4.33333333 6.5,3.5 6.5,3.5 C6.5,3 6.08728027,1.5 4.5,1.5 C2.91271973,1.5 2.5,3 2.5,3.5 C2.5,3.5 2.5,4.83333333 2.5,7.5 L1,8 Z M13,6 L13,10.5 C13,12.4329966 11.4329966,14 9.5,14 C7.56700338,14 6,12.4329966 6,10.5 L6,8 L7.5,8 C7.5,9.66666667 7.5,10.5 7.5,10.5 C7.5,11 7.91271973,12.5 9.5,12.5 C11.0872803,12.5 11.5,11 11.5,10.5 C11.5,10.5 11.5,9.16666667 11.5,6.5 L13,6 Z M0,11 L3,11 L3,14 L0,14 L0,11 Z" id="形状结合" fill="#6E6E6E" fill-rule="nonzero"></path>
        </g>
    </g>
</svg>