<?xml version="1.0" encoding="UTF-8"?>
<svg width="14px" height="14px" viewBox="0 0 14 14" version="1.1" xmlns="http://www.w3.org/2000/svg" xmlns:xlink="http://www.w3.org/1999/xlink">
    <!-- Generator: Sketch 54.1 (76490) - https://sketchapp.com -->
    <title>ic_menu_nav2</title>
    <desc>Created with Sketch.</desc>
    <g id="ic_menu_nav2" stroke="none" stroke-width="1" fill="none" fill-rule="evenodd">
        <g>
            <rect id="矩形" opacity="0.200000003" x="0" y="0" width="14" height="14"></rect>
            <path d="M5,1 L11,1 C12.1045695,1 13,1.8954305 13,3 L13,9 L11.5,7.5 L11.5,3.5 C11.5,2.94771525 11.0522847,2.5 10.5,2.5 L6.5,2.5 L5,1 Z M9,13 L3,13 C1.8954305,13 1,12.1045695 1,11 L1,5 L2.5,6.5 L2.5,10.5 C2.5,11.0522847 2.94771525,11.5 3.5,11.5 L7.5,11.5 L9,13 Z M0,0 L3,0 L3,3 L0,3 L0,0 Z M11,11 L14,11 L14,14 L11,14 L11,11 Z" id="形状结合" fill="#6E6E6E" fill-rule="nonzero"></path>
        </g>
    </g>
</svg>