<?xml version="1.0" encoding="UTF-8"?>
<svg width="14px" height="14px" viewBox="0 0 14 14" version="1.1" xmlns="http://www.w3.org/2000/svg" xmlns:xlink="http://www.w3.org/1999/xlink">
    <!-- Generator: Sketch 54.1 (76490) - https://sketchapp.com -->
    <title>ic_menu_nav4</title>
    <desc>Created with Sketch.</desc>
    <g id="ic_menu_nav4" stroke="none" stroke-width="1" fill="none" fill-rule="evenodd">
        <g>
            <rect id="矩形" x="0" y="0" width="14" height="14"></rect>
            <path d="M0,0 L4,0 L4,2 L0,2 L0,0 Z M0,4 L4,4 L4,6 L0,6 L0,4 Z M0,8 L4,8 L4,10 L0,10 L0,8 Z M0,12 L4,12 L4,14 L0,14 L0,12 Z M6,1 L14,1 L14,13 L6,13 L6,1 Z M7.5,2.5 L7.5,11.5 L12.5,11.5 L12.5,2.5 L7.5,2.5 Z" id="形状结合" fill="#6E6E6E" fill-rule="nonzero"></path>
        </g>
    </g>
</svg>