<?xml version="1.0" encoding="UTF-8"?>
<svg width="14px" height="14px" viewBox="0 0 14 14" version="1.1" xmlns="http://www.w3.org/2000/svg" xmlns:xlink="http://www.w3.org/1999/xlink">
    <!-- Generator: Sketch 54.1 (76490) - https://sketchapp.com -->
    <title>ic_rate_stars_half-right</title>
    <desc>Created with Sketch.</desc>
    <g id="ic_rate_stars_half-right" stroke="none" stroke-width="1" fill="none" fill-rule="evenodd">
        <g>
            <rect id="矩形" x="0" y="0" width="14" height="14"></rect>
            <path d="M7,0.210792383 C7.14688662,0.207260033 7.28961134,0.287353529 7.35886009,0.427788862 L9.39671292,4.56052099 C9.45506679,4.67886168 9.56947092,4.75951826 9.70053786,4.77472198 L13.6370988,5.23136185 C13.7197348,5.2409476 13.7971152,5.27679314 13.8578635,5.33362836 C14.0146216,5.48028896 14.0228072,5.7262584 13.8761466,5.88301648 L11.0078542,8.94878885 C10.9272012,9.03499484 10.890097,9.15318321 10.907007,9.27001831 L11.5265295,13.5504183 C11.5388765,13.6357265 11.5225167,13.7227188 11.480023,13.7977136 C11.3741951,13.9844832 11.136998,14.0500995 10.9502283,13.9442716 L7.19815066,11.81826 C7.136767,11.7834787 7.06827039,11.7666539 7,11.7678001 L7,0.210792383 L7,0.210792383 Z" id="路径" fill="#EAEAEC" fill-rule="nonzero"></path>
        </g>
    </g>
</svg>