<?xml version="1.0" encoding="UTF-8"?>
<svg width="14px" height="14px" viewBox="0 0 14 14" version="1.1" xmlns="http://www.w3.org/2000/svg" xmlns:xlink="http://www.w3.org/1999/xlink">
    <!-- Generator: Sketch 54.1 (76490) - https://sketchapp.com -->
    <title>ic_rate_stars_half-left</title>
    <desc>Created with Sketch.</desc>
    <g id="ic_rate_stars_half-left" stroke="none" stroke-width="1" fill="none" fill-rule="evenodd">
        <g>
            <rect id="矩形" x="0" y="0" width="14" height="14"></rect>
            <path d="M7,0.211040116 L7,11.7678001 C6.93658606,11.7688646 6.8733673,11.7854343 6.81622548,11.8175203 L3.08064784,13.9151081 C2.99841353,13.961284 2.90219536,13.9759857 2.80992419,13.9564734 C2.59990058,13.9120605 2.46564662,13.7057989 2.51005957,13.4957753 L3.39811641,9.29625922 C3.4258795,9.16497086 3.38395838,9.02864763 3.28722273,8.93564421 L0.123112046,5.89361049 C0.0577849709,5.83080385 0.0164564028,5.74714517 0.00627134304,5.65709759 C-0.0178554072,5.44378954 0.135506345,5.25131059 0.348814404,5.22718384 L4.35206713,4.77438577 C4.48445253,4.75941198 4.59994477,4.67767752 4.65809507,4.55780821 L6.66053414,0.430039138 C6.69825878,0.352274685 6.76082658,0.289302339 6.8383463,0.25107732 C6.89044442,0.2253877 6.9455086,0.212442435 7,0.211040116 L7,0.211040116 Z" id="路径" fill="#FFB409" fill-rule="nonzero"></path>
        </g>
    </g>
</svg>