<?xml version="1.0" encoding="UTF-8"?>
<svg width="14px" height="14px" viewBox="0 0 14 14" version="1.1" xmlns="http://www.w3.org/2000/svg" xmlns:xlink="http://www.w3.org/1999/xlink">
    <!-- Generator: Sketch 54.1 (76490) - https://sketchapp.com -->
    <title>ic_website_earth</title>
    <desc>Created with Sketch.</desc>
    <g id="ic_website_earth" stroke="none" stroke-width="1" fill="none" fill-rule="evenodd">
        <rect id="矩形" x="0" y="0" width="14" height="14"></rect>
        <g>
            <rect id="矩形" x="0" y="0" width="14" height="14"></rect>
            <g id="编组">
                <path d="M13.34375,6.99474836 C13.34375,3.49419948 10.5037008,0.65625 7.00007002,0.65625 C3.49636367,0.65625 0.65625,3.49420505 0.65625,6.99474836 C0.65625,10.2016739 3.05320574,12.8931864 6.26459135,13.2937286 C6.4198587,13.32645 6.6141056,13.3445902 6.84382326,13.3445902 C6.8987087,13.3445902 6.95284385,13.3417774 7.06676542,13.3328892 C10.5422218,13.2971742 13.34375,10.4705536 13.34375,6.99474836 Z" id="路径" stroke="#6E6E6E" stroke-width="1.3125"></path>
                <path d="M12.68665,7.13727681 C12.6675605,6.80369239 12.6238591,6.47716222 12.5573114,6.159828 C12.5632188,6.04651826 12.5648251,5.93916515 12.5618117,5.83936154 C12.6441036,6.22737213 12.6874996,6.62991955 12.6874996,7.04268024 C12.6875129,7.07428382 12.6871545,7.1057937 12.68665,7.13727681 Z M1.3125,7.04268024 C1.3125,6.63744229 1.35434289,6.24206959 1.43374083,5.8606046 C1.67935539,6.12548035 2.25826609,6.11922923 2.399446,5.72346835 C2.6520565,5.8752753 2.9915255,5.90291673 2.9915255,6.20634321 C2.9915255,7.20775238 3.02689018,8.2813505 3.92924693,8.29793536 C3.95465533,8.29827 4.43247669,8.48052937 4.65987791,9.07520139 C4.7385059,9.28073844 5.04951325,9.07520139 5.39057526,9.07520139 C5.56084077,9.07520139 5.39057526,9.36443907 5.39057526,9.98989816 C5.39057526,10.6129344 6.72271101,11.572259 6.72271101,11.572259 C6.71653813,11.9846717 6.73333104,12.3181491 6.76736821,12.5845642 C6.46667555,12.5789823 6.21326854,12.6191661 6.01418295,12.6875 C3.34295533,12.2171274 1.3125,9.86893181 1.3125,7.04268024 Z M8.41018999,12.5983112 C8.38061856,12.4527554 8.25124184,12.3730437 8.01518959,12.435421 C8.2035361,11.6290545 8.29509971,11.1773548 8.68828934,10.8343871 C9.25717674,10.3386084 8.75603337,9.78727919 8.32312667,9.85225326 C7.98191673,9.90404245 8.19754458,9.42752577 7.8930027,9.40116938 C7.58846081,9.37554919 7.19074425,8.7665545 6.75244519,8.55700173 C6.52010769,8.44607464 6.29177782,8.14880556 5.93345878,8.1354868 C5.61586872,8.12310505 5.15173958,8.40546248 5.15173958,8.18781141 C5.15173958,7.48675003 5.08113295,6.98648717 5.06662017,6.78670597 C5.05490344,6.62619832 4.96226135,6.73264122 5.39158646,6.74301512 C5.6252421,6.74930638 5.51111046,6.27118343 5.74238281,6.25251042 C5.96952768,6.23443975 6.51078755,6.46627965 6.64868553,6.37387834 C6.77679737,6.28783521 7.59039142,8.52094071 7.59039142,6.74300172 C7.59039142,6.53204348 7.48171871,6.16526259 7.59039142,5.96546797 C8.02018253,5.17595404 8.42254584,4.53250462 8.38641036,4.43837654 C8.36590608,4.38538265 7.94669997,4.34162488 7.61128182,4.45477399 C7.49808219,4.49277592 7.64728415,4.67101958 7.48470114,4.70908844 C6.8755508,4.85046795 6.33735326,4.54396273 6.5258196,4.25586284 C6.71881285,3.96060161 7.41807554,4.12706586 7.47937537,3.53473633 C7.51464541,3.19544962 7.54387067,2.80249971 7.56342962,2.51045105 C8.38325484,2.63934172 8.29300935,1.44078832 7.07400299,1.3125 C9.54013589,1.34150675 11.6299219,2.9426879 12.3967822,5.16489747 C12.3579971,5.12933174 12.3128744,5.10771387 12.2607616,5.1024399 C11.8922037,4.17691412 10.9976177,4.84671996 11.3010811,5.66305878 C9.67509135,6.91965247 10.0913017,7.79606619 10.6255182,8.29793533 C10.9066266,8.56175362 11.1746336,8.95851843 11.3491331,9.2434727 C11.1592021,9.80024989 12.0489417,9.57729807 12.4877467,8.63243 C11.9295907,10.5785065 10.3725299,12.0992397 8.41018999,12.5983112 Z" id="形状" fill="#6E6E6E" fill-rule="nonzero"></path>
            </g>
        </g>
    </g>
</svg>