<?xml version="1.0" encoding="UTF-8"?>
<svg width="14px" height="14px" viewBox="0 0 14 14" version="1.1" xmlns="http://www.w3.org/2000/svg" xmlns:xlink="http://www.w3.org/1999/xlink">
    <!-- Generator: Sketch 54.1 (76490) - https://sketchapp.com -->
    <title>ic_website_search</title>
    <desc>Created with Sketch.</desc>
    <g id="ic_website_search" stroke="none" stroke-width="1" fill="none" fill-rule="evenodd">
        <g>
            <rect id="矩形" x="0" y="0" width="14" height="14"></rect>
            <path d="M10.8325557,10.8325557 L11.1100956,10.5125034 C13.2108426,8.08997232 13.0161895,4.43899798 10.6697674,2.25356939 C8.32334529,0.0681408016 4.6677619,0.133052444 2.40040717,2.40040717 C0.133052444,4.6677619 0.0681408016,8.32334529 2.25356939,10.6697674 C4.43899798,13.0161895 8.08997232,13.2108426 10.5125034,11.1100956 L10.8325557,10.8325557 Z M11.6864296,11.6863905 L11.683999,11.7297419 C11.6832632,11.7428651 11.6881655,11.7556782 11.6981516,11.765636 L13.262273,13.3297575 C13.2743279,13.3418124 13.2918984,13.3465204 13.3083658,13.342108 C13.3248331,13.3376956 13.3376956,13.3248331 13.342108,13.3083658 C13.3465204,13.2918984 13.3418124,13.2743279 13.3298728,13.2623883 L11.7636355,11.6969256 C11.754064,11.6873034 11.7430946,11.6832045 11.7290663,11.6839932 L11.6864296,11.6863905 Z" id="路径" stroke="#6E6E6E" stroke-width="1.3125"></path>
        </g>
    </g>
</svg>