<?xml version="1.0" encoding="UTF-8"?>
<svg width="28px" height="28px" viewBox="0 0 28 28" version="1.1" xmlns="http://www.w3.org/2000/svg" xmlns:xlink="http://www.w3.org/1999/xlink">
    <!-- Generator: Sketch 56.2 (81672) - https://sketch.com -->
    <title>MailRead</title>
    <desc>Created with Sketch.</desc>
    <g id="MailRead" stroke="none" stroke-width="1" fill="none" fill-rule="evenodd">
        <g>
            <rect id="矩形" opacity="0.200000003" x="0" y="0" width="28" height="28"></rect>
            <path d="M1,14 L4,14" id="路径-32" stroke="#6E6E6E" stroke-width="2"></path>
            <path d="M4,16 L4,3.30769231 C4,2.03318904 4.8954305,1 6,1 L22,1 C23.1045695,1 24,2.03318904 24,3.30769231 L24,16" id="路径" stroke="#6E6E6E" stroke-width="2"></path>
            <path d="M13.1618836,19.6131771 L1,14 L1,25 C1,26.1045695 1.8954305,27 3,27 L25,27 C26.1045695,27 27,26.1045695 27,25 L27,14 L14.8381164,19.6131771 C14.3063261,19.8586187 13.6936739,19.8586187 13.1618836,19.6131771 Z" id="路径-29" stroke="#6E6E6E" stroke-width="2" stroke-linejoin="round"></path>
            <path d="M10,7 L18,7" id="路径-31" stroke="#6E6E6E" stroke-width="2" stroke-linecap="round"></path>
            <path d="M10,13 L18,13" id="路径-31" stroke="#6E6E6E" stroke-width="2" stroke-linecap="round"></path>
            <path d="M24,14 L27,14" id="路径-32" stroke="#6E6E6E" stroke-width="2"></path>
        </g>
    </g>
</svg>