<?xml version="1.0" encoding="UTF-8"?>
<svg width="28px" height="28px" viewBox="0 0 28 28" version="1.1" xmlns="http://www.w3.org/2000/svg" xmlns:xlink="http://www.w3.org/1999/xlink">
    <!-- Generator: Sketch 56.2 (81672) - https://sketch.com -->
    <title>MenuFold</title>
    <desc>Created with Sketch.</desc>
    <g id="MenuFold" stroke="none" stroke-width="1" fill="none" fill-rule="evenodd">
        <g>
            <rect id="蒙版" opacity="0.200000003" x="0" y="0" width="28" height="28"></rect>
            <path d="M1,3 L27,3" id="路径" stroke="#6E6E6E" stroke-width="2" stroke-linecap="round"></path>
            <path d="M1,25 L27,25" id="路径" stroke="#6E6E6E" stroke-width="2" stroke-linecap="round"></path>
            <path d="M13,10 L27,10" id="路径-2" stroke="#6E6E6E" stroke-width="2" stroke-linecap="round"></path>
            <path d="M13,18 L27,18" id="路径-3" stroke="#6E6E6E" stroke-width="2" stroke-linecap="round"></path>
            <path d="M1.23808432,14.4101724 L6.2309751,17.9028694 C6.45724927,18.0611559 6.76899727,18.006041 6.92728376,17.7797668 C6.98605611,17.6957504 7.01757813,17.5956965 7.01757813,17.4931638 L7.01757813,10.5157164 C7.01757813,10.2395741 6.7937205,10.0157164 6.51757813,10.0157164 C6.41522789,10.0157164 6.31534305,10.0471265 6.23141342,10.1057045 L1.23852264,13.5904549 C1.01207932,13.7484993 0.956631042,14.0601882 1.11467544,14.2866315 C1.14824671,14.3347318 1.19001991,14.3765497 1.23808432,14.4101724 Z" id="路径-49" stroke="#6E6E6E" stroke-width="2"></path>
        </g>
    </g>
</svg>