<?xml version="1.0" encoding="UTF-8"?>
<svg width="28px" height="28px" viewBox="0 0 28 28" version="1.1" xmlns="http://www.w3.org/2000/svg" xmlns:xlink="http://www.w3.org/1999/xlink">
    <!-- Generator: Sketch 56.2 (81672) - https://sketch.com -->
    <title>Message</title>
    <desc>Created with Sketch.</desc>
    <g id="Message" stroke="none" stroke-width="1" fill="none" fill-rule="evenodd">
        <g>
            <rect id="蒙版" opacity="0.200000003" x="0" y="0" width="28" height="28"></rect>
            <path d="M3,3 L25,3 C26.1045695,3 27,3.8954305 27,5 L27,21 C27,22.1045695 26.1045695,23 25,23 L18,23 L14.6358418,25.7714676 C14.2665378,26.0757084 13.7334622,26.0757084 13.3641582,25.7714676 L10,23 L3,23 C1.8954305,23 1,22.1045695 1,21 L1,5 C1,3.8954305 1.8954305,3 3,3 Z" id="矩形" stroke="#6E6E6E" stroke-width="2"></path>
            <path d="M7,13 L8,13" id="路径-39" stroke="#6E6E6E" stroke-width="2" stroke-linecap="round" stroke-linejoin="round"></path>
            <path d="M13.5,13 L14.5,13" id="路径-39" stroke="#6E6E6E" stroke-width="2" stroke-linecap="round" stroke-linejoin="round"></path>
            <path d="M20,13 L21,13" id="路径-39" stroke="#6E6E6E" stroke-width="2" stroke-linecap="round" stroke-linejoin="round"></path>
        </g>
    </g>
</svg>