<?xml version="1.0" encoding="UTF-8"?>
<svg width="28px" height="28px" viewBox="0 0 28 28" version="1.1" xmlns="http://www.w3.org/2000/svg" xmlns:xlink="http://www.w3.org/1999/xlink">
    <!-- Generator: Sketch 56.2 (81672) - https://sketch.com -->
    <title>Moments</title>
    <desc>Created with Sketch.</desc>
    <g id="Moments" stroke="none" stroke-width="1" fill="none" fill-rule="evenodd">
        <g>
            <rect id="矩形" opacity="0.200000003" x="0" y="0" width="28" height="28"></rect>
            <circle id="椭圆形" stroke="#6E6E6E" stroke-width="2" cx="14" cy="14" r="13"></circle>
            <g id="编组-6" transform="translate(9.174362, 2.000000)" stroke="#6E6E6E" stroke-width="2">
                <path d="M9.82563782,12 L9.82563782,0" id="路径-114"></path>
                <path d="M4.82563782,17 L16.8256378,17" id="路径-114"></path>
                <path d="M7.65354919,16.8284454 L16.6535492,7.82844543" id="路径-114"></path>
                <path d="M0,23.8284454 L9,14.8284454" id="路径-114" transform="translate(4.500000, 19.328445) rotate(-90.000000) translate(-4.500000, -19.328445) "></path>
            </g>
            <g id="编组-6" transform="translate(10.500000, 14.000000) scale(-1, -1) translate(-10.500000, -14.000000) translate(2.000000, 2.000000)" stroke="#6E6E6E" stroke-width="2">
                <path d="M10,12 L10,0" id="路径-114"></path>
                <path d="M5,17 L16.8279114,17" id="路径-114"></path>
                <path d="M7.82791138,16.8284454 L16.8279114,7.82844543" id="路径-114"></path>
                <path d="M0.174362183,23.8284454 L9.17436218,14.8284454" id="路径-114" transform="translate(4.674362, 19.328445) rotate(-90.000000) translate(-4.674362, -19.328445) "></path>
            </g>
            <circle id="椭圆形" stroke="#6E6E6E" stroke-width="2" cx="14" cy="14" r="5"></circle>
        </g>
    </g>
</svg>