<?xml version="1.0" encoding="UTF-8"?>
<svg width="28px" height="28px" viewBox="0 0 28 28" version="1.1" xmlns="http://www.w3.org/2000/svg" xmlns:xlink="http://www.w3.org/1999/xlink">
    <!-- Generator: Sketch 56.2 (81672) - https://sketch.com -->
    <title>Move</title>
    <desc>Created with Sketch.</desc>
    <g id="Move" stroke="none" stroke-width="1" fill="none" fill-rule="evenodd">
        <g>
            <rect id="矩形" opacity="0.200000003" x="0" y="1" width="28" height="28"></rect>
            <path d="M14,2 L14,10.5" id="路径-13" stroke="#6E6E6E" stroke-width="2" stroke-linecap="round"></path>
            <polyline id="路径-6" stroke="#6E6E6E" stroke-width="2" stroke-linecap="round" stroke-linejoin="round" transform="translate(14.000000, 3.000000) rotate(90.000000) translate(-14.000000, -3.000000) " points="16 -1 12 3 16 7"></polyline>
            <polyline id="路径-6" stroke="#6E6E6E" stroke-width="2" stroke-linecap="round" stroke-linejoin="round" transform="translate(25.000000, 14.000000) rotate(180.000000) translate(-25.000000, -14.000000) " points="27 10 23 14 27 18"></polyline>
            <path d="M14,17.5 L14,26" id="路径-13" stroke="#6E6E6E" stroke-width="2" stroke-linecap="round" transform="translate(14.000000, 21.750000) scale(1, -1) translate(-14.000000, -21.750000) "></path>
            <polyline id="路径-6" stroke="#6E6E6E" stroke-width="2" stroke-linecap="round" stroke-linejoin="round" transform="translate(14.000000, 25.000000) scale(1, -1) rotate(90.000000) translate(-14.000000, -25.000000) " points="16 21 12 25 16 29"></polyline>
            <path d="M21.75,9.75 L21.75,18.25" id="路径-13" stroke="#6E6E6E" stroke-width="2" stroke-linecap="round" transform="translate(21.750000, 14.000000) rotate(90.000000) translate(-21.750000, -14.000000) "></path>
            <path d="M6.25,9.75 L6.25,18.25" id="路径-13" stroke="#6E6E6E" stroke-width="2" stroke-linecap="round" transform="translate(6.250000, 14.000000) scale(1, -1) rotate(-90.000000) translate(-6.250000, -14.000000) "></path>
            <polyline id="路径-6" stroke="#6E6E6E" stroke-width="2" stroke-linecap="round" stroke-linejoin="round" points="5 10 1 14 5 18"></polyline>
        </g>
    </g>
</svg>