<?xml version="1.0" encoding="UTF-8"?>
<svg width="28px" height="28px" viewBox="0 0 28 28" version="1.1" xmlns="http://www.w3.org/2000/svg" xmlns:xlink="http://www.w3.org/1999/xlink">
    <!-- Generator: Sketch 56.2 (81672) - https://sketch.com -->
    <title>News</title>
    <desc>Created with Sketch.</desc>
    <g id="News" stroke="none" stroke-width="1" fill="none" fill-rule="evenodd">
        <g>
            <rect id="蒙版" opacity="0.200000003" x="0" y="0" width="28" height="28"></rect>
            <path d="M3,1 L21,1 C22.1045695,1 23,1.8954305 23,3 L23,25 C23,26.1045695 23.8954305,27 25,27 L25,27 L3,27 C1.8954305,27 1,26.1045695 1,25 L1,3 C1,1.8954305 1.8954305,1 3,1 Z" id="矩形" stroke="#6E6E6E" stroke-width="2" stroke-linejoin="round"></path>
            <rect id="矩形" stroke="#6E6E6E" stroke-width="2" stroke-linejoin="round" x="7" y="7" width="6" height="6"></rect>
            <path d="M23,18 L25,18 C26.1045695,18 27,18.8954305 27,20 L27,25 C27,26.1045695 26.1045695,27 25,27 C23.8954305,27 23,26.1045695 23,25 L23,18 Z" id="矩形" stroke="#6E6E6E" stroke-width="2"></path>
            <path d="M7,18 L15,18" id="路径-70" stroke="#6E6E6E" stroke-width="2" stroke-linecap="round"></path>
            <path d="M7,22 L12,22" id="路径-70" stroke="#6E6E6E" stroke-width="2" stroke-linecap="round"></path>
        </g>
    </g>
</svg>