<?xml version="1.0" encoding="UTF-8"?>
<svg width="28px" height="28px" viewBox="0 0 28 28" version="1.1" xmlns="http://www.w3.org/2000/svg" xmlns:xlink="http://www.w3.org/1999/xlink">
    <!-- Generator: Sketch 56.2 (81672) - https://sketch.com -->
    <title>Overview</title>
    <desc>Created with Sketch.</desc>
    <g id="Overview" stroke="none" stroke-width="1" fill="none" fill-rule="evenodd">
        <g>
            <rect id="矩形" x="0" y="0" width="28" height="28"></rect>
            <path d="M14.4642778,1.04673401 L25.4642778,6.81292486 C25.7936438,6.98557825 26,7.32673928 26,7.6986145 L26,20.3014323 C26,20.6732829 25.7936709,21.0144256 25.4643385,21.1870901 L14.4643385,26.9542424 C14.1735505,27.1066986 13.8264495,27.1066986 13.5356615,26.9542424 L2.53566151,21.1870901 C2.20632913,21.0144256 2,20.6732829 2,20.3014323 L2,7.6986145 C2,7.32673928 2.2063562,6.98557825 2.53572222,6.81292486 L13.5357222,1.04673401 C13.8264778,0.894320202 14.1735222,0.894320202 14.4642778,1.04673401 Z" id="多边形" stroke="#6E6E6E" stroke-width="1.85714286" stroke-linejoin="round"></path>
            <path d="M14,19 L14,14" id="路径-59" stroke="#6E6E6E" stroke-width="2" stroke-linecap="round" stroke-linejoin="round"></path>
            <path d="M11.7065353,15.1242859 L11.7934647,9.49882203" id="路径-59" stroke="#6E6E6E" stroke-width="2" stroke-linecap="round" stroke-linejoin="round" transform="translate(11.750000, 12.311554) rotate(126.000000) translate(-11.750000, -12.311554) "></path>
            <path d="M16.2934647,15.1242859 L16.2065353,9.49882203" id="路径-59" stroke="#6E6E6E" stroke-width="2" stroke-linecap="round" stroke-linejoin="round" transform="translate(16.250000, 12.311554) rotate(-126.000000) translate(-16.250000, -12.311554) "></path>
        </g>
    </g>
</svg>