<?xml version="1.0" encoding="UTF-8"?>
<svg width="28px" height="28px" viewBox="0 0 28 28" version="1.1" xmlns="http://www.w3.org/2000/svg" xmlns:xlink="http://www.w3.org/1999/xlink">
    <!-- Generator: Sketch 56.2 (81672) - https://sketch.com -->
    <title>Pentool</title>
    <desc>Created with Sketch.</desc>
    <g id="Pentool" stroke="none" stroke-width="1" fill="none" fill-rule="evenodd">
        <g>
            <rect id="矩形" opacity="0.200000003" x="0" y="0" width="28" height="28"></rect>
            <path d="M8,23 L20,23 C21.1045695,23 22,23.8954305 22,25 L22,27 L6,27 L6,25 C6,23.8954305 6.8954305,23 8,23 Z" id="矩形" stroke="#6E6E6E" stroke-width="2" stroke-linejoin="round"></path>
            <path d="M9,23 C9,20 7,17 5,15 C5,15 8,10.3333333 14,1" id="路径" stroke="#6E6E6E" stroke-width="2" stroke-linecap="round" stroke-linejoin="round"></path>
            <path d="M18,23 C18,20 16,17 14,15 C14,15 17,10.3333333 23,1" id="路径" stroke="#6E6E6E" stroke-width="2" stroke-linecap="round" stroke-linejoin="round" transform="translate(18.500000, 12.000000) scale(-1, 1) translate(-18.500000, -12.000000) "></path>
            <path d="M14,1 L14,13" id="路径-71" stroke="#6E6E6E" stroke-width="2" stroke-linecap="round"></path>
            <circle id="椭圆形" stroke="#6E6E6E" stroke-width="2" cx="14" cy="15" r="2"></circle>
        </g>
    </g>
</svg>