<?xml version="1.0" encoding="UTF-8"?>
<svg width="28px" height="28px" viewBox="0 0 28 28" version="1.1" xmlns="http://www.w3.org/2000/svg" xmlns:xlink="http://www.w3.org/1999/xlink">
    <!-- Generator: Sketch 56.2 (81672) - https://sketch.com -->
    <title>Phone</title>
    <desc>Created with Sketch.</desc>
    <g id="Phone" stroke="none" stroke-width="1" fill="none" fill-rule="evenodd">
        <g>
            <rect id="蒙版" opacity="0.200000003" x="0" y="0" width="28" height="28"></rect>
            <path d="M24.3320557,11.5442671 C22.9707549,11.5442671 20.5036237,11.0728592 19.7347967,10.3341074 C19.2628107,9.88040639 19.1516841,9.31233672 19.0613937,8.85370102 C18.9502671,8.29056604 18.8835308,8.1233672 18.6271545,8.01654572 C17.4479443,7.52888244 15.7559814,7.24992743 13.9842973,7.24992743 C12.2328455,7.24992743 10.5583972,7.52539913 9.39217189,8.00464441 C9.13851336,8.10885341 9.0729849,8.27605225 8.96457607,8.83802612 C8.87579559,9.29666183 8.76587689,9.86734398 8.29509872,10.3184325 C7.86629501,10.7306241 6.96792102,11.0150943 6.29059233,11.1793904 C5.41728223,11.3918723 4.48116144,11.5149492 3.72380952,11.5149492 C2.85563298,11.5149492 2.26859466,11.3567489 1.92977933,11.0296081 C1.41649204,10.5343291 1.09963671,9.88203876 1.03412311,9.18577649 C0.985807201,8.61248186 1.10085947,7.76342525 1.92313589,6.9712627 C3.25937282,5.68679245 5.05612079,4.6850508 7.26566783,3.99477504 C9.29765389,3.35878084 11.6092683,3.02322206 13.952288,3.02322206 C16.3110105,3.02322206 18.6422532,3.36255443 20.6938676,4.00609579 C22.9233449,4.70711176 24.7388153,5.71872279 26.0868293,7.01596517 C27.4596051,8.33555878 27.1195819,10.0865022 26.1025319,11.0644412 C25.7664344,11.3875181 25.1872474,11.5445573 24.3320557,11.5445573 L24.3320557,11.5442671 Z" id="路径" stroke="#6E6E6E" stroke-width="2" fill-rule="nonzero"></path>
            <path d="M22.509338,24.9857765 L5.51149826,24.9857765 C4.63426249,24.9857765 3.82466899,24.6539913 3.2324971,24.0519594 C2.6403252,23.4499274 2.34076655,22.6542816 2.38908246,21.8121916 C2.39421603,21.7152395 2.54339141,19.4229318 4.04994193,17.112627 C4.94167247,15.7451379 6.12360046,14.6554427 7.56190476,13.87373 C9.34144019,12.9071118 11.5105226,12.4171263 14.0105691,12.4171263 C16.5106156,12.4171263 18.679698,12.9071118 20.4592334,13.87373 C21.8987456,14.6554427 23.0809756,15.7451379 23.9711963,17.112627 C25.4774448,19.4240929 25.6266202,21.7164006 25.6320557,21.8121916 C25.6803717,22.6539913 25.380813,23.4499274 24.7886411,24.0519594 C24.1964692,24.6539913 23.3871777,24.9857765 22.50964,24.9857765 L22.509338,24.9857765 Z" id="路径" stroke="#6E6E6E" stroke-width="2" fill-rule="nonzero"></path>
            <path d="M14.0105691,16.1875181 C12.56629,16.1875181 11.3954704,17.3129794 11.3954704,18.7013062 C11.3954704,20.0896331 12.56629,21.2150943 14.0105691,21.2150943 C15.4548482,21.2150943 16.6256678,20.0896331 16.6256678,18.7013062 C16.624336,17.3135101 15.4542962,16.1887984 14.0105691,16.1875181 L14.0105691,16.1875181 Z" id="路径" stroke="#6E6E6E" stroke-width="2" fill-rule="nonzero"></path>
        </g>
    </g>
</svg>