<?xml version="1.0" encoding="UTF-8"?>
<svg width="28px" height="28px" viewBox="0 0 28 28" version="1.1" xmlns="http://www.w3.org/2000/svg" xmlns:xlink="http://www.w3.org/1999/xlink">
    <!-- Generator: Sketch 56.2 (81672) - https://sketch.com -->
    <title>Printer</title>
    <desc>Created with Sketch.</desc>
    <g id="Printer" stroke="none" stroke-width="1" fill="none" fill-rule="evenodd">
        <g>
            <rect id="矩形" opacity="0.200000003" x="0" y="0" width="28" height="28"></rect>
            <path d="M7,23 L3,23 C1.8954305,23 1,22.1045695 1,21 L1,7 C1,5.8954305 1.8954305,5 3,5 L3,5 L25,5 C26.1045695,5 27,5.8954305 27,7 L27,21 C27,22.1045695 26.1045695,23 25,23 L21,23" id="路径" stroke="#6E6E6E" stroke-width="2"></path>
            <polyline id="路径" stroke="#6E6E6E" stroke-width="2" stroke-linecap="round" stroke-linejoin="round" points="7 5 7 1 21 1 21 5"></polyline>
            <polygon id="路径" stroke="#6E6E6E" stroke-width="2" stroke-linecap="round" stroke-linejoin="round" transform="translate(14.000000, 21.000000) scale(1, -1) translate(-14.000000, -21.000000) " points="7 27 7 15 21 15 21 27"></polygon>
            <path d="M12,9 L16,9" id="路径-73" stroke="#6E6E6E" stroke-width="2" stroke-linecap="round"></path>
        </g>
    </g>
</svg>