<?xml version="1.0" encoding="UTF-8"?>
<svg width="28px" height="28px" viewBox="0 0 28 28" version="1.1" xmlns="http://www.w3.org/2000/svg" xmlns:xlink="http://www.w3.org/1999/xlink">
    <!-- Generator: Sketch 56.2 (81672) - https://sketch.com -->
    <title>Relaxation</title>
    <desc>Created with Sketch.</desc>
    <g id="Relaxation" stroke="none" stroke-width="1" fill="none" fill-rule="evenodd">
        <g stroke="#6E6E6E" stroke-width="2">
            <path d="M20.3564123,12.0674639 C19.0988777,13.3246941 17.2125758,15.2105395 14.6975065,17.725 C14.4974581,17.9 14.2473976,18 13.9973371,18 L13.9973371,18 C13.7472766,18 13.4972161,17.9 13.2971676,17.7 L3.29474679,7.7 C3.01968023,7.42500001 2.919656,6.975 3.06969232,6.60000002 C3.21972863,6.25000003 3.5948194,6 3.99491626,6 C9.77495348,6 14.1099814,6 17,6" id="路径" stroke-linecap="round" fill-rule="nonzero"></path>
            <path d="M18.9997012,27 L9.00029877,27 C8.52532715,27 8.12535105,26.7119114 8.02535703,26.3130194 C7.92536301,25.9141274 8.12535105,25.4930748 8.55032568,25.3157895 L13.5500269,23.099723 C13.8250104,22.966759 14.1749895,22.966759 14.4499731,23.099723 L19.4496743,25.3157895 C19.8746489,25.4930748 20.074637,25.9141274 19.974643,26.3130194 C19.8746489,26.7119114 19.4746728,27 18.9997012,27 Z" id="路径" fill-rule="nonzero"></path>
            <path d="M23.5,10 C21.575,10 20,8.42500001 20,6.5 C20,4.57499999 21.575,3 23.5,3 C25.425,3 27,4.57499999 27,6.5 C27,8.42500001 25.425,10 23.5,10 Z" id="路径" stroke-linecap="round"></path>
            <path d="M14,18 L14,23" id="路径-65" stroke-linecap="round"></path>
            <polyline id="路径-66" stroke-linecap="round" points="3 2 9 2 11 6"></polyline>
        </g>
    </g>
</svg>