<?xml version="1.0" encoding="UTF-8"?>
<svg width="28px" height="28px" viewBox="0 0 28 28" version="1.1" xmlns="http://www.w3.org/2000/svg" xmlns:xlink="http://www.w3.org/1999/xlink">
    <!-- Generator: Sketch 56.2 (81672) - https://sketch.com -->
    <title>Server</title>
    <desc>Created with Sketch.</desc>
    <g id="Server" stroke="none" stroke-width="1" fill="none" fill-rule="evenodd">
        <g>
            <rect id="矩形" opacity="0.200000003" x="0" y="0" width="28" height="28"></rect>
            <path d="M3,1 L25,1 C26.1045695,1 27,1.8954305 27,3 L27,15 C27,16.1045695 26.1045695,17 25,17 L3,17 C1.8954305,17 1,16.1045695 1,15 L1,3 C1,1.8954305 1.8954305,1 3,1 Z" id="矩形" stroke="#6E6E6E" stroke-width="2"></path>
            <path d="M2,9 L27,9" id="路径-79" stroke="#6E6E6E" stroke-width="2"></path>
            <path d="M5,5 L5.02052307,5" id="路径-80" stroke="#6E6E6E" stroke-width="2" stroke-linecap="round"></path>
            <path d="M5,13 L5.02052307,13" id="路径-80" stroke="#6E6E6E" stroke-width="2" stroke-linecap="round"></path>
            <path d="M14,17 L14,21" id="路径-76" stroke="#6E6E6E" stroke-width="2" stroke-linecap="round"></path>
            <path d="M1,24 L11,24" id="路径-81" stroke="#6E6E6E" stroke-width="2" stroke-linecap="round"></path>
            <path d="M17,24 L27,24" id="路径-81" stroke="#6E6E6E" stroke-width="2" stroke-linecap="round"></path>
            <circle id="椭圆形" stroke="#6E6E6E" stroke-width="2" cx="14" cy="24" r="3"></circle>
        </g>
    </g>
</svg>