<?xml version="1.0" encoding="UTF-8"?>
<svg width="28px" height="28px" viewBox="0 0 28 28" version="1.1" xmlns="http://www.w3.org/2000/svg" xmlns:xlink="http://www.w3.org/1999/xlink">
    <!-- Generator: Sketch 56.2 (81672) - https://sketch.com -->
    <title>Shake</title>
    <desc>Created with Sketch.</desc>
    <defs>
        <rect id="path-1" x="0" y="0" width="28" height="28"></rect>
    </defs>
    <g id="Shake" stroke="none" stroke-width="1" fill="none" fill-rule="evenodd">
        <g>
            <rect id="矩形" opacity="0.200000003" x="0" y="0" width="28" height="28"></rect>
            <mask id="mask-2" fill="white">
                <use xlink:href="#path-1"></use>
            </mask>
            <g id="矩形" opacity="0.200000003"></g>
            <g id="编组-7" mask="url(#mask-2)" stroke="#6E6E6E" stroke-width="2">
                <g transform="translate(14.353553, 13.887628) rotate(-15.000000) translate(-14.353553, -13.887628) translate(0.853553, 1.887628)">
                    <path d="M7.99358234,0.560732999 L17.9935823,0.560732999 C19.0981518,0.560732999 19.9935823,1.4561635 19.9935823,2.560733 L19.9935823,21.560733 C19.9935823,22.6653025 19.0981518,23.560733 17.9935823,23.560733 L7.99358234,23.560733 C6.88901284,23.560733 5.99358234,22.6653025 5.99358234,21.560733 L5.99358234,2.560733 C5.99358234,1.4561635 6.88901284,0.560732999 7.99358234,0.560732999 Z" id="矩形"></path>
                    <path d="M4.99358234,17.560733 L19.9935823,17.560733" id="路径-120"></path>
                    <path d="M11.9935823,20.560733 L13.9935823,20.560733" id="路径-120" stroke-linecap="round"></path>
                    <path d="M3.32925349,10.0606424 C3.20131435,10.6992053 3.13419549,11.3597432 3.13419549,12.0359576 C3.13419549,12.7291885 3.20473486,13.405944 3.33902747,14.059438 M22.931865,14.0472263 C23.064532,13.3975143 23.1341955,12.7248713 23.1341955,12.0359576 C23.1341955,11.350768 23.0652831,10.6816739 22.9340111,10.0352278" id="形状" stroke-linecap="round"></path>
                    <path d="M1.59582016,6.04132637 C0.662011223,7.83504378 0.134195491,9.87386169 0.134195491,12.0359576 C0.134195491,14.2095996 0.667663597,16.2586434 1.61081516,18.0593044 M24.6505405,18.0727172 C25.5895565,16.2476189 26.1341955,14.2149984 26.1341955,12.0359576 C26.1341955,9.8796716 25.6092126,7.84600195 24.6800899,6.05579172" id="形状" stroke-linecap="round"></path>
                </g>
            </g>
        </g>
    </g>
</svg>