<?xml version="1.0" encoding="UTF-8"?>
<svg width="28px" height="28px" viewBox="0 0 28 28" version="1.1" xmlns="http://www.w3.org/2000/svg" xmlns:xlink="http://www.w3.org/1999/xlink">
    <!-- Generator: Sketch 56.2 (81672) - https://sketch.com -->
    <title>Shop</title>
    <desc>Created with Sketch.</desc>
    <g id="Shop" stroke="none" stroke-width="1" fill="none" fill-rule="evenodd">
        <g>
            <rect id="矩形" opacity="0.200000003" x="0" y="0" width="28" height="28"></rect>
            <path d="M5,14 L3,14 C1.8954305,14 1,13.1045695 1,12 C1,11.8950319 1.0082637,11.7902268 1.02471451,11.6865559 L2.45286113,2.68655586 C2.60700743,1.71514529 3.44458189,1 4.42814662,1 L23.7044939,1 C24.6880586,1 25.5256331,1.71514529 25.6797794,2.68655586 L27.107926,11.6865559 C27.2810364,12.7774759 26.5370047,13.8021751 25.4460847,13.9752855 C25.3424137,13.9917363 25.2376086,14 25.1326405,14 L23,14" id="路径" stroke="#6E6E6E" stroke-width="2" stroke-linecap="round"></path>
            <path d="M25,14 L25,25 C25,26.1045695 24.1045695,27 23,27 L5,27 C3.8954305,27 3,26.1045695 3,25 L3,14 L3,14" id="路径" stroke="#6E6E6E" stroke-width="2"></path>
            <path d="M5,14 L5,14 C6.65685425,14 8,13.1045695 8,12" id="路径" stroke="#6E6E6E" stroke-width="2" stroke-linecap="round"></path>
            <path d="M8,14 L8,14 C9.65685425,14 11,13.1045695 11,12" id="路径" stroke="#6E6E6E" stroke-width="2" stroke-linecap="round" transform="translate(9.500000, 13.000000) scale(-1, 1) translate(-9.500000, -13.000000) "></path>
            <path d="M11,14 L11,14 C12.6568542,14 14,13.1045695 14,12" id="路径" stroke="#6E6E6E" stroke-width="2" stroke-linecap="round"></path>
            <path d="M14,14 L14,14 C15.6568542,14 17,13.1045695 17,12" id="路径" stroke="#6E6E6E" stroke-width="2" stroke-linecap="round" transform="translate(15.500000, 13.000000) scale(-1, 1) translate(-15.500000, -13.000000) "></path>
            <path d="M17,14 L17,14 C18.6568542,14 20,13.1045695 20,12" id="路径" stroke="#6E6E6E" stroke-width="2" stroke-linecap="round"></path>
            <path d="M20,14 L20,14 C21.6568542,14 23,13.1045695 23,12" id="路径" stroke="#6E6E6E" stroke-width="2" stroke-linecap="round" transform="translate(21.500000, 13.000000) scale(-1, 1) translate(-21.500000, -13.000000) "></path>
            <path d="M10,26 L10,22 C10,20.8954305 10.8954305,20 12,20 L16,20 C17.1045695,20 18,20.8954305 18,22 L18,26" id="路径" stroke="#6E6E6E" stroke-width="2" stroke-linecap="round"></path>
        </g>
    </g>
</svg>