<?xml version="1.0" encoding="UTF-8"?>
<svg width="28px" height="28px" viewBox="0 0 28 28" version="1.1" xmlns="http://www.w3.org/2000/svg" xmlns:xlink="http://www.w3.org/1999/xlink">
    <!-- Generator: Sketch 56.2 (81672) - https://sketch.com -->
    <title>Star</title>
    <desc>Created with Sketch.</desc>
    <defs>
        <rect id="path-1" x="0" y="0" width="28" height="28"></rect>
    </defs>
    <g id="Star" stroke="none" stroke-width="1" fill="none" fill-rule="evenodd">
        <g>
            <mask id="mask-2" fill="white">
                <use xlink:href="#path-1"></use>
            </mask>
            <g id="蒙版" opacity="0.200000003"></g>
            <path d="M13.9999027,22.6887817 L6.48517575,26.829979 C6.00147532,27.0965354 5.39327195,26.9205054 5.12671551,26.436805 C5.00931771,26.2237718 4.97359115,25.9752529 5.02622461,25.7377764 L6.88014042,17.3731069 L1.33562304,11.8989315 C0.942613692,11.5109082 0.938571724,10.8777561 1.32659505,10.4847468 C1.48613002,10.3231618 1.69590801,10.2206834 1.92142515,10.1941669 L9.2723999,9.32983398 L13.107942,1.59942677 C13.3534115,1.10469129 13.9534661,0.902621241 14.4482016,1.14809069 C14.6428877,1.24468675 14.8008052,1.40207836 14.8980502,1.59644121 L18.7672729,9.32983398 L26.0812017,10.2374645 C26.6292824,10.3054792 27.0184527,10.8049232 26.950438,11.3530039 C26.9225939,11.5773788 26.8195358,11.7856957 26.658077,11.9439689 L21.119665,17.3731069 L22.9610028,25.739213 C23.0797165,26.2785881 22.7387031,26.8120745 22.1993281,26.9307883 C21.9620245,26.9830176 21.7138222,26.9470583 21.5010985,26.8296295 L13.9999027,22.6887817 Z" id="星形" stroke="#6E6E6E" stroke-width="2" stroke-linejoin="round" mask="url(#mask-2)"></path>
        </g>
    </g>
</svg>