<?xml version="1.0" encoding="UTF-8"?>
<svg width="28px" height="28px" viewBox="0 0 28 28" version="1.1" xmlns="http://www.w3.org/2000/svg" xmlns:xlink="http://www.w3.org/1999/xlink">
    <!-- Generator: Sketch 56.2 (81672) - https://sketch.com -->
    <title>Task</title>
    <desc>Created with Sketch.</desc>
    <g id="Task" stroke="none" stroke-width="1" fill="none" fill-rule="evenodd">
        <g>
            <rect id="矩形" opacity="0.200000003" x="0" y="0" width="28" height="28"></rect>
            <path d="M5,3 L12,3 L12,12 L3,12 L3,5 C3,3.8954305 3.8954305,3 5,3 Z" id="矩形" stroke="#6E6E6E" stroke-width="2" stroke-linejoin="round" fill-rule="nonzero"></path>
            <path d="M3,16 L12,16 L12,25 L5,25 C3.8954305,25 3,24.1045695 3,23 L3,16 Z" id="矩形-copy-3" stroke="#6E6E6E" stroke-width="2" stroke-linejoin="round" fill-rule="nonzero"></path>
            <path d="M16,16 L25,16 L25,23 C25,24.1045695 24.1045695,25 23,25 L16,25 L16,16 Z" id="矩形-copy-4" stroke="#6E6E6E" stroke-width="2" stroke-linejoin="round" fill-rule="nonzero"></path>
            <path d="M16,3 L23,3 C24.1045695,3 25,3.8954305 25,5 L25,12 L16,12 L16,3 Z" id="矩形-copy-2" stroke="#6E6E6E" stroke-width="2" stroke-linejoin="round" fill-rule="nonzero"></path>
        </g>
    </g>
</svg>