<?xml version="1.0" encoding="UTF-8"?>
<svg width="28px" height="28px" viewBox="0 0 28 28" version="1.1" xmlns="http://www.w3.org/2000/svg" xmlns:xlink="http://www.w3.org/1999/xlink">
    <!-- Generator: Sketch 56.2 (81672) - https://sketch.com -->
    <title>ThumbsDown</title>
    <desc>Created with Sketch.</desc>
    <g id="ThumbsDown" stroke="none" stroke-width="1" fill="none" fill-rule="evenodd">
        <g>
            <rect id="矩形" opacity="0.200000003" x="0" y="0" width="28" height="28"></rect>
            <path d="M3,11.9700911 C4.29143744,11.9700911 5.95812171,11.9700911 8.0000528,11.9700911 C10.0000528,11.9700911 11.1750216,7.67832601 12.0100007,4.97009109 C12.8299101,2.31073464 16.0984989,2.37607446 17.0100007,4.97009109 C17.7230038,6.99920601 16.6386583,9.97009109 19.0000528,9.97009109 C20.3165837,9.97009109 21.6331146,9.97009109 22.9496456,9.97009109 C25.1587845,9.97009109 26.9496456,11.7609521 26.9496456,13.9700911 C26.9496456,14.2785541 26.9139649,14.5859819 26.843315,14.8862452 L24.7256609,23.8863087 C24.3005179,25.693173 22.6881986,26.9701546 20.8319915,26.9701546 L3,26.9701546 C1.8954305,26.9701546 1,26.0747241 1,24.9701546 L1,13.9701098 C0.999981314,12.86553 1.89542018,11.9700911 3,11.9700911 Z" id="路径-102" stroke="#6E6E6E" stroke-width="2" stroke-linejoin="round" transform="translate(13.974821, 14.985077) scale(1, -1) translate(-13.974821, -14.985077) "></path>
            <path d="M7,4 L7,17" id="路径-101" stroke="#6E6E6E" stroke-width="2" transform="translate(7.000000, 10.500000) scale(1, -1) translate(-7.000000, -10.500000) "></path>
        </g>
    </g>
</svg>