<?xml version="1.0" encoding="UTF-8"?>
<svg width="28px" height="28px" viewBox="0 0 28 28" version="1.1" xmlns="http://www.w3.org/2000/svg" xmlns:xlink="http://www.w3.org/1999/xlink">
    <!-- Generator: Sketch 56.2 (81672) - https://sketch.com -->
    <title>Topic</title>
    <desc>Created with Sketch.</desc>
    <g id="Topic" stroke="none" stroke-width="1" fill="none" fill-rule="evenodd">
        <g>
            <rect id="矩形" opacity="0.200000003" x="0" y="0" width="28" height="28"></rect>
            <path d="M3,3 L25,3 C26.1045695,3 27,3.8954305 27,5 L27,21 C27,22.1045695 26.1045695,23 25,23 L18,23 L14.6358418,25.7714676 C14.2665378,26.0757084 13.7334622,26.0757084 13.3641582,25.7714676 L10,23 L3,23 C1.8954305,23 1,22.1045695 1,21 L1,5 C1,3.8954305 1.8954305,3 3,3 Z" id="矩形" stroke="#6E6E6E" stroke-width="2"></path>
            <path d="M10,11 L19,11" id="路径-109" stroke="#6E6E6E" stroke-width="2" stroke-linecap="round"></path>
            <path d="M9,15 L18,15" id="路径-109" stroke="#6E6E6E" stroke-width="2" stroke-linecap="round"></path>
            <path d="M8,12 L16,14" id="路径-109" stroke="#6E6E6E" stroke-width="2" stroke-linecap="round" transform="translate(12.000000, 13.000000) rotate(90.000000) translate(-12.000000, -13.000000) "></path>
            <path d="M12,12 L20,14" id="路径-109" stroke="#6E6E6E" stroke-width="2" stroke-linecap="round" transform="translate(16.000000, 13.000000) rotate(90.000000) translate(-16.000000, -13.000000) "></path>
        </g>
    </g>
</svg>