<?xml version="1.0" encoding="UTF-8"?>
<svg width="14px" height="14px" viewBox="0 0 14 14" version="1.1" xmlns="http://www.w3.org/2000/svg" xmlns:xlink="http://www.w3.org/1999/xlink">
    <!-- Generator: Sketch 54.1 (76490) - https://sketchapp.com -->
    <title>ic_avatar</title>
    <desc>Created with Sketch.</desc>
    <g id="ic_avatar" stroke="none" stroke-width="1" fill="none" fill-rule="evenodd">
        <g id="ic/avatar/avatar-circle_default_24px">
            <path d="M8.46490216,8.66666666 L8.46485261,8.66666667 L5.53509784,8.66666666 C3.32968536,8.6664481 1.53090432,10.4599155 1.5,12.6884172 L1.5,12.9819182 C1.5,13.3416448 2.52143211,13.5 5.53514739,13.5 L8.46485261,13.5 C11.4837753,13.5 12.5,13.3422343 12.5,12.9819182 L12.5000479,12.6953397 C12.4690957,10.4599155 10.6703146,8.6664481 8.46490216,8.66666666 Z M3.9,3.5 C3.9,5.15365291 5.28481415,6.5 7,6.5 C8.71518585,6.5 10.1,5.15365291 10.1,3.5 C10.1,1.84634709 8.71518585,0.5 7,0.5 C5.28481415,0.5 3.9,1.84634709 3.9,3.5 Z" id="路径-2-copy-2" stroke="#6E6E6E" fill="#6E6E6E"></path>
        </g>
    </g>
</svg>
