<?xml version="1.0" encoding="UTF-8"?>
<svg width="28px" height="28px" viewBox="0 0 28 28" version="1.1" xmlns="http://www.w3.org/2000/svg" xmlns:xlink="http://www.w3.org/1999/xlink">
    <!-- Generator: Sketch 56.2 (81672) - https://sketch.com -->
    <title>Video</title>
    <desc>Created with Sketch.</desc>
    <g id="Video" stroke="none" stroke-width="1" fill="none" fill-rule="evenodd">
        <g>
            <rect id="蒙版" opacity="0.200000003" x="0" y="0" width="28" height="28"></rect>
            <path d="M3,24 L20,24 C21.1045695,24 22,23.1045695 22,22 L22,19.3796503 L25.4215712,21.8058553 C25.8720881,22.1253127 26.4962755,22.0190681 26.8157329,21.5685512 C26.9356097,21.3994942 27,21.1973681 27,20.9901225 L27,7.00957316 C27,6.45728841 26.5522847,6.00957316 26,6.00957316 C25.7927544,6.00957316 25.5906283,6.07396344 25.4215712,6.19384027 L22,8.62004532 L22,6 C22,4.8954305 21.1045695,4 20,4 L3,4 C1.8954305,4 1,4.8954305 1,6 L1,22 C1,23.1045695 1.8954305,24 3,24 Z" id="路径-33" stroke="#6E6E6E" stroke-width="2"></path>
            <path d="M5,9 L11,9" id="路径" stroke="#6E6E6E" stroke-width="2" stroke-linecap="round" stroke-linejoin="round"></path>
        </g>
    </g>
</svg>