<?xml version="1.0" encoding="UTF-8"?>
<svg width="28px" height="28px" viewBox="0 0 28 28" version="1.1" xmlns="http://www.w3.org/2000/svg" xmlns:xlink="http://www.w3.org/1999/xlink">
    <!-- Generator: Sketch 56.2 (81672) - https://sketch.com -->
    <title>WeChat</title>
    <desc>Created with Sketch.</desc>
    <g id="WeChat" stroke="none" stroke-width="1" fill="none" fill-rule="evenodd">
        <g>
            <rect id="矩形" opacity="0.200000003" x="0" y="0" width="28" height="28"></rect>
            <g transform="translate(1.000000, 4.000000)" fill-rule="nonzero">
                <path d="M25.6988417,13.3706757 C25.6988417,9.77283784 22.2294981,6.94596524 17.9891892,6.94596524 C13.7488803,6.94596524 10.2795367,9.77283784 10.2795367,13.3706757 C10.2795367,16.9685135 13.7488803,19.7953861 17.9891892,19.7953861 C18.7601544,19.7953861 19.5311197,19.6668919 20.3020849,19.5383977 L22.7434749,20.8233398 L22.1010039,18.8959267 C24.2854054,17.6109846 25.6988417,15.6835714 25.6988417,13.3706757 L25.6988417,13.3706757 Z" id="路径" stroke="#6E6E6E" stroke-width="1.85714286"></path>
                <path d="M15.5229537,12.4506371 C14.8265251,12.4506371 14.3622394,11.9863514 14.3622394,11.2899228 C14.3622394,10.5934942 14.8265251,10.1292085 15.5229537,10.1292085 C16.2193822,10.1292085 16.683668,10.5934942 16.683668,11.2899228 C16.683668,11.8702799 16.1033108,12.4506371 15.5229537,12.4506371 Z" id="路径" fill="#6E6E6E"></path>
                <path d="M20.7912162,12.4506371 C20.0947876,12.4506371 19.6305019,11.9863514 19.6305019,11.2899228 C19.6305019,10.5934942 20.0947876,10.1292085 20.7912162,10.1292085 C21.4876448,10.1292085 21.9519305,10.5934942 21.9519305,11.2899228 C21.9519305,11.8702799 21.3715734,12.4506371 20.7912162,12.4506371 Z" id="路径" fill="#6E6E6E" transform="translate(20.791216, 11.289923) scale(-1, 1) translate(-20.791216, -11.289923) "></path>
                <path d="M18.1176834,5.91801159 C17.0897297,2.57716216 13.6203861,0.00727800169 9.25158301,0.00727800169 C4.11181467,0.00727800169 0,3.47662162 0,7.71693051 C0,10.4153089 1.6704247,12.8566988 4.24030888,14.1416409 L3.46934362,16.4545367 L6.42471043,15.0411004 C7.32416989,15.2980888 8.22362935,15.426583 9.25158301,15.426583 L9.50857142,15.426583" id="形状" stroke="#6E6E6E" stroke-width="1.85714286" stroke-linecap="round"></path>
                <path d="M12.2676834,3.84277992 C13.0176834,3.84277992 13.6605405,4.48563706 13.6605405,5.23563706 C13.6605405,5.98563707 13.0176834,6.62849421 12.2676834,6.62849421 C11.5176834,6.52135136 10.8748263,5.8784942 10.8748263,5.1284942 C10.8748263,4.37849419 11.5176834,3.84277992 12.2676834,3.84277992 Z" id="路径" fill="#6E6E6E"></path>
                <path d="M5.97999999,6.5 C5.19999998,6.5 4.64285714,5.85714287 4.64285714,5.10714285 C4.64285714,4.35714283 5.31142856,3.71428571 6.09142857,3.71428571 C6.87142857,3.71428571 7.42857143,4.35714285 7.42857143,5.10714285 C7.42857143,5.85714285 6.76000001,6.5 5.97999999,6.5 Z" id="路径" fill="#6E6E6E"></path>
            </g>
        </g>
    </g>
</svg>