<?xml version="1.0" encoding="UTF-8"?>
<svg width="28px" height="28px" viewBox="0 0 28 28" version="1.1" xmlns="http://www.w3.org/2000/svg" xmlns:xlink="http://www.w3.org/1999/xlink">
    <!-- Generator: Sketch 56.2 (81672) - https://sketch.com -->
    <title>Weibo</title>
    <desc>Created with Sketch.</desc>
    <g id="Weibo" stroke="none" stroke-width="1" fill="none" fill-rule="evenodd">
        <g>
            <rect id="矩形" opacity="0.200000003" x="0" y="0" width="28" height="28"></rect>
            <g transform="translate(1.000000, 3.000000)" id="路径" stroke="#6E6E6E" stroke-width="2">
                <path d="M18.9758962,11.131197 C18.562404,11.0921763 18.1876509,10.8623903 18.4619615,10.3872655 C18.7363637,9.91211763 19.2424681,8.52959438 18.2688611,7.55603849 C17.2950481,6.5785136 15.165838,6.9484833 13.6588809,7.57943705 C12.1557704,8.21032158 12.2369348,7.77029463 12.2832753,7.33795181 C12.3334851,6.88232579 13.1449463,4.33531987 10.6641991,4.0276771 C7.41448468,3.62655546 3.24519653,7.68066932 1.77288035,10.0174112 C-0.452834166,13.5457264 0.0483162318,15.906125 0.0483162318,15.906125 C0.466066611,18.9362546 4.44120754,22 10.3416452,22 C15.4152357,22 20.2432292,19.9092607 21.5068302,17.2688682 C21.5068302,17.2688682 21.5106309,17.257192 21.5221702,17.237624 C21.6535902,16.953449 21.7541013,16.6651666 21.8160107,16.3653234 C21.9936795,15.6565129 22.1290375,14.6285218 21.7966411,13.6157837 C21.2054342,11.8244085 19.3893426,11.1701023 18.9758962,11.131197 Z" fill-rule="nonzero"></path>
                <path d="M26,6 C26,2.6862915 23.3137085,0 20,0" stroke-linecap="round"></path>
                <path d="M22,7 C22,5.34314575 20.6568542,4 19,4" stroke-linecap="round"></path>
            </g>
        </g>
    </g>
</svg>