<svg width="96" height="24" viewBox="0 0 96 24" xmlns="http://www.w3.org/2000/svg" xmlns:xlink="http://www.w3.org/1999/xlink"><title>logo</title><desc>Created using Figma</desc><use xlink:href="#a" fill="#53637A"/><defs><path id="a" d="M7.415.137c-.505.064-1.107.18-1.343.255-.677.224-1.279.447-1.45.553-.087.043-.377.202-.635.33-.602.308-1.934 1.626-2.246 2.232-.14.256-.28.532-.333.617-.269.49-.355.691-.538 1.244C.183 7.452 0 8.908 0 12.034c0 2.467.107 3.669.451 5.061a37 37 0 0 1 .194.851c.118.5.451 1.35.817 2.073 1.106 2.17 3.191 3.488 6.115 3.87 1.644.224 4.223.096 5.265-.265.248-.085.495-.15.57-.15.193 0 1.505-.627 2.053-.988.59-.383 1.622-1.436 1.622-1.648 0-.085-.258-.393-.558-.67-.677-.606-1.01-.66-1.451-.234-.355.351-1.053.883-1.397 1.074-1.29.702-4.213 1-6.287.617-2.44-.436-3.944-1.86-4.621-4.37-.42-1.542-.516-2.499-.516-5.263 0-2.743.107-3.934.483-5.114.086-.277.162-.553.162-.617 0-.266.763-1.69 1.128-2.116a7.08 7.08 0 0 1 1.021-.871c1.075-.723 1.838-.925 3.923-1.032 2.686-.127 4.707.436 5.91 1.659.58.606.903.585 1.645-.075.3-.276.558-.574.558-.67 0-.414-1.59-1.743-2.73-2.264C12.672.105 9.878-.203 7.416.137zm44.352.351c-.107.106-.182.245-.182.308 0 .064-.065.255-.15.426-.076.16-.226.478-.323.701-.086.213-.247.574-.344.798a11.54 11.54 0 0 0-.3.712c-.076.17-.216.49-.302.691-.096.202-.612 1.425-1.16 2.711a992.5 992.5 0 0 0-1.14 2.68c-.193.436-.43.989-.634 1.467-.086.202-.236.542-.322.744-.086.202-.236.553-.333.776-.097.213-.237.553-.323.744-.075.192-.215.5-.3.692-.076.18-.527 1.222-.979 2.307-.462 1.084-.977 2.264-1.139 2.637-.172.361-.311.701-.311.755 0 .053-.065.233-.15.404-.087.159-.227.478-.323.69-.097.224-.247.585-.344.798-.097.223-.236.542-.322.702-.216.425-.183.85.064 1.116.193.202.344.234.956.234.462 0 .774-.053.85-.138.053-.064.505-1.063.988-2.201.484-1.138.957-2.244 1.053-2.445.086-.203.237-.543.323-.745.096-.202.236-.542.322-.744.097-.202.237-.542.322-.744.086-.202.226-.543.312-.745.086-.202.237-.542.323-.744.086-.202.225-.52.29-.69.075-.182.225-.511.322-.745.108-.234.258-.574.323-.744.075-.181.214-.49.3-.691.097-.202.688-1.595 1.322-3.084.634-1.488 1.215-2.839 1.3-2.998.087-.149.151-.34.151-.425.01-.213.409-.638.538-.564.053.032.107.138.107.234 0 .085.065.287.15.436.086.16.602 1.34 1.14 2.626.548 1.287 1.064 2.499 1.139 2.68.182.414.419.967.623 1.435.086.191.226.52.312.723.086.202.236.542.322.744.086.202.237.564.344.797.097.234.247.585.333.777.075.191.215.5.301.69 1.118 2.531 2.085 4.902 2.031 5.03-.043.127-.924.149-5.835.149-5.675 0-5.782 0-6.062.223-.247.191-.279.297-.279.83 0 .499.043.648.247.84l.247.233h14.433l.226-.319c.247-.35.247-.404-.172-1.35-.193-.447-.43-.989-.634-1.467-.086-.203-.236-.543-.322-.745-.086-.202-.226-.531-.312-.723-.075-.18-.527-1.222-.978-2.307-.451-1.084-.903-2.126-.978-2.307-.086-.191-.226-.51-.322-.723-.086-.202-.226-.532-.323-.744-.086-.202-.225-.543-.311-.745-.086-.202-.237-.542-.323-.744-.086-.202-.225-.542-.311-.744-.097-.213-.237-.542-.323-.744-.096-.213-.236-.532-.322-.723-.076-.181-.527-1.223-.978-2.307-.924-2.19-.914-2.18-1.634-3.796-.096-.223-.236-.564-.322-.755C52.83.339 52.809.297 52.348.297c-.258 0-.473.074-.58.191zm-26.78.18l-.27.256V11.97c0 11.015 0 11.046.226 11.334l.215.276h13.069l.225-.244c.344-.362.333-1.33-.01-1.648-.248-.234-.248-.234-5.729-.234-4.116 0-5.513-.032-5.61-.128-.096-.096-.129-2.52-.129-10.25V.968l-.268-.288c-.215-.234-.344-.276-.86-.276-.494 0-.645.042-.86.266zM69.23.479c-.075.031-.204.19-.29.35-.237.457-.247 21.86 0 22.317.193.372.344.436 1.075.436.494 0 .612-.043.795-.276.225-.288.225-.32.225-11.313 0-10.994 0-11.026-.225-11.313-.194-.244-.29-.276-.828-.265-.333 0-.677.031-.752.063zm11.338.201l-.29.309v22.008l.269.298c.236.244.354.287.902.287.505 0 .656-.043.85-.244l.236-.245V12.938c0-7.75.032-10.185.129-10.281.257-.255 4.707-.032 5.996.308 1.827.468 3.128 1.276 3.665 2.254.215.383.247.606.247 1.563 0 .946-.032 1.18-.236 1.542-.28.51-1.258 1.552-1.655 1.765-.15.085-.688.35-1.193.606-1.247.627-1.311.702-1.032 1.297.13.266.366.765.527 1.116.16.351.505 1.063.752 1.595.935 1.978 1.214 2.573 1.504 3.19.28.585.57 1.201 1.57 3.317.204.425.537 1.138.752 1.574l.387.808.849-.032c.827-.032.87-.043 1.064-.351.225-.362.28-.18-.667-2.18-.86-1.796-1.15-2.403-1.483-3.136-.193-.415-.537-1.149-.773-1.648-.516-1.074-1.129-2.371-1.526-3.2-.151-.33-.28-.649-.28-.723 0-.064.269-.287.591-.5.333-.202.978-.744 1.451-1.212 1.107-1.085 1.569-2 1.666-3.307.172-2.18-.527-3.774-2.182-5.018-.87-.649-2.257-1.276-3.245-1.467a7.323 7.323 0 0 1-.86-.202c-.237-.086-1.741-.15-4.041-.181L80.848.37l-.28.308z"/></defs></svg>